<svg width="190" height="121" viewBox="0 0 190 121" fill="none" xmlns="http://www.w3.org/2000/svg">
<rect width="190" height="121" fill="white"/>
<rect x="38.5" y="20.5" width="67" height="80" fill="#D9D9D9" stroke="black"/>
<line x1="38" y1="35.5" x2="106" y2="35.5" stroke="black"/>
<line x1="38" y1="51.5" x2="106" y2="51.5" stroke="black"/>
<path d="M55.8858 31H55.1921L57.1985 25.5357H57.8816L59.888 31H59.1943L57.5614 26.4002H57.5187L55.8858 31ZM56.142 28.8655H58.9381V29.4525H56.142V28.8655ZM60.6537 32.5368V26.9018H61.2621V27.5528H61.3368C61.383 27.4816 61.4471 27.3909 61.5289 27.2806C61.6125 27.1686 61.7317 27.069 61.8864 26.9818C62.0429 26.8929 62.2546 26.8484 62.5214 26.8484C62.8665 26.8484 63.1707 26.9347 63.4339 27.1072C63.6972 27.2798 63.9026 27.5243 64.0503 27.8409C64.1979 28.1576 64.2717 28.5311 64.2717 28.9616C64.2717 29.3956 64.1979 29.7718 64.0503 30.0902C63.9026 30.4068 63.6981 30.6523 63.4366 30.8266C63.1751 30.9991 62.8736 31.0854 62.5321 31.0854C62.2688 31.0854 62.0581 31.0418 61.8997 30.9546C61.7414 30.8657 61.6196 30.7652 61.5342 30.6531C61.4488 30.5393 61.383 30.445 61.3368 30.3703H61.2834V32.5368H60.6537ZM61.2727 28.9509C61.2727 29.2604 61.3181 29.5334 61.4088 29.77C61.4995 30.0048 61.632 30.1889 61.8064 30.3223C61.9807 30.4539 62.1941 30.5197 62.4467 30.5197C62.71 30.5197 62.9296 30.4504 63.1057 30.3116C63.2836 30.1711 63.417 29.9826 63.506 29.746C63.5967 29.5076 63.642 29.2426 63.642 28.9509C63.642 28.6627 63.5976 28.403 63.5086 28.1718C63.4215 27.9388 63.2889 27.7547 63.1111 27.6195C62.935 27.4825 62.7135 27.4141 62.4467 27.4141C62.1906 27.4141 61.9753 27.479 61.801 27.6088C61.6267 27.7369 61.4951 27.9165 61.4061 28.1478C61.3172 28.3772 61.2727 28.6449 61.2727 28.9509ZM65.8619 25.5357V31H65.2322V25.5357H65.8619ZM67.0152 31V26.9018H67.6449V31H67.0152ZM67.3354 26.2187C67.2126 26.2187 67.1068 26.1769 67.0179 26.0933C66.9307 26.0097 66.8871 25.9092 66.8871 25.7918C66.8871 25.6744 66.9307 25.5739 67.0179 25.4903C67.1068 25.4067 67.2126 25.3649 67.3354 25.3649C67.4581 25.3649 67.563 25.4067 67.6502 25.4903C67.7391 25.5739 67.7836 25.6744 67.7836 25.7918C67.7836 25.9092 67.7391 26.0097 67.6502 26.0933C67.563 26.1769 67.4581 26.2187 67.3354 26.2187ZM70.4631 31.0854C70.0789 31.0854 69.748 30.9947 69.4705 30.8132C69.193 30.6318 68.9796 30.3819 68.8302 30.0635C68.6808 29.7451 68.6061 29.3813 68.6061 28.9722C68.6061 28.556 68.6825 28.1887 68.8355 27.8703C68.9903 27.5501 69.2055 27.3002 69.4812 27.1206C69.7587 26.9391 70.0824 26.8484 70.4524 26.8484C70.7406 26.8484 71.0003 26.9018 71.2315 27.0085C71.4627 27.1152 71.6522 27.2646 71.7998 27.4567C71.9474 27.6488 72.039 27.873 72.0746 28.1291H71.4449C71.3969 27.9423 71.2902 27.7769 71.1248 27.6328C70.9611 27.487 70.7406 27.4141 70.4631 27.4141C70.2176 27.4141 70.0024 27.4781 69.8174 27.6062C69.6342 27.7324 69.491 27.9112 69.3878 28.1424C69.2864 28.3719 69.2357 28.6414 69.2357 28.9509C69.2357 29.2675 69.2855 29.5432 69.3852 29.778C69.4865 30.0128 69.6288 30.1951 69.812 30.325C69.997 30.4548 70.214 30.5197 70.4631 30.5197C70.6267 30.5197 70.7752 30.4913 70.9086 30.4344C71.0421 30.3774 71.155 30.2956 71.2475 30.1889C71.34 30.0822 71.4058 29.9541 71.4449 29.8047H72.0746C72.039 30.0466 71.951 30.2645 71.8105 30.4584C71.6717 30.6505 71.4876 30.8034 71.2582 30.9173C71.0305 31.0293 70.7655 31.0854 70.4631 31.0854ZM74.2011 31.0961C73.9414 31.0961 73.7057 31.0471 73.4941 30.9493C73.2824 30.8497 73.1143 30.7065 72.9898 30.5197C72.8653 30.3312 72.803 30.1035 72.803 29.8367C72.803 29.6019 72.8493 29.4116 72.9418 29.2657C73.0342 29.1181 73.1579 29.0025 73.3126 28.9189C73.4674 28.8353 73.6381 28.773 73.8249 28.7321C74.0134 28.6894 74.2029 28.6556 74.3932 28.6307C74.6422 28.5987 74.8441 28.5747 74.9989 28.5587C75.1554 28.5409 75.2692 28.5115 75.3404 28.4706C75.4133 28.4297 75.4498 28.3586 75.4498 28.2572V28.2358C75.4498 27.9726 75.3777 27.768 75.2337 27.6222C75.0914 27.4763 74.8752 27.4034 74.5853 27.4034C74.2847 27.4034 74.049 27.4692 73.8783 27.6008C73.7075 27.7324 73.5874 27.873 73.5181 28.0224L72.9204 27.8089C73.0271 27.5599 73.1694 27.366 73.3473 27.2273C73.527 27.0868 73.7226 26.9889 73.9343 26.9338C74.1477 26.8769 74.3576 26.8484 74.564 26.8484C74.6956 26.8484 74.8468 26.8644 75.0175 26.8964C75.1901 26.9267 75.3564 26.9898 75.5165 27.0859C75.6783 27.1819 75.8126 27.3269 75.9194 27.5208C76.0261 27.7147 76.0795 27.9744 76.0795 28.2999V31H75.4498V30.445H75.4178C75.3751 30.534 75.3039 30.6291 75.2043 30.7305C75.1047 30.8319 74.9722 30.9182 74.8068 30.9893C74.6413 31.0605 74.4395 31.0961 74.2011 31.0961ZM74.2972 30.5304C74.5462 30.5304 74.7561 30.4815 74.9268 30.3837C75.0994 30.2858 75.2292 30.1595 75.3164 30.0048C75.4053 29.85 75.4498 29.6873 75.4498 29.5165V28.9402C75.4231 28.9722 75.3644 29.0016 75.2737 29.0283C75.1847 29.0532 75.0816 29.0754 74.9642 29.095C74.8486 29.1128 74.7356 29.1288 74.6253 29.143C74.5168 29.1554 74.4288 29.1661 74.3612 29.175C74.1975 29.1964 74.0446 29.231 73.9023 29.2791C73.7618 29.3253 73.6479 29.3956 73.5608 29.4898C73.4754 29.5823 73.4327 29.7086 73.4327 29.8687C73.4327 30.0875 73.5136 30.2529 73.6755 30.365C73.8391 30.4753 74.0464 30.5304 74.2972 30.5304ZM78.8937 31.0854C78.5094 31.0854 78.1786 30.9947 77.9011 30.8132C77.6236 30.6318 77.4102 30.3819 77.2608 30.0635C77.1114 29.7451 77.0366 29.3813 77.0366 28.9722C77.0366 28.556 77.1131 28.1887 77.2661 27.8703C77.4209 27.5501 77.6361 27.3002 77.9118 27.1206C78.1893 26.9391 78.513 26.8484 78.883 26.8484C79.1711 26.8484 79.4308 26.9018 79.6621 27.0085C79.8933 27.1152 80.0827 27.2646 80.2304 27.4567C80.378 27.6488 80.4696 27.873 80.5052 28.1291H79.8755C79.8275 27.9423 79.7208 27.7769 79.5553 27.6328C79.3917 27.487 79.1711 27.4141 78.8937 27.4141C78.6482 27.4141 78.433 27.4781 78.248 27.6062C78.0648 27.7324 77.9216 27.9112 77.8184 28.1424C77.717 28.3719 77.6663 28.6414 77.6663 28.9509C77.6663 29.2675 77.7161 29.5432 77.8157 29.778C77.9171 30.0128 78.0594 30.1951 78.2426 30.325C78.4276 30.4548 78.6446 30.5197 78.8937 30.5197C79.0573 30.5197 79.2058 30.4913 79.3392 30.4344C79.4726 30.3774 79.5856 30.2956 79.6781 30.1889C79.7706 30.0822 79.8364 29.9541 79.8755 29.8047H80.5052C80.4696 30.0466 80.3816 30.2645 80.2411 30.4584C80.1023 30.6505 79.9182 30.8034 79.6888 30.9173C79.4611 31.0293 79.196 31.0854 78.8937 31.0854ZM78.5948 30.9787H79.1178L79.0751 31.1921C79.2138 31.2134 79.341 31.2713 79.4566 31.3655C79.5722 31.4616 79.6301 31.6137 79.6301 31.8218C79.6301 32.0512 79.5349 32.238 79.3446 32.3821C79.156 32.5279 78.8776 32.6009 78.5094 32.6009L78.4881 32.1846C78.6535 32.1846 78.7905 32.158 78.899 32.1046C79.0093 32.053 79.0644 31.9659 79.0644 31.8431C79.0644 31.7204 79.0191 31.6368 78.9283 31.5923C78.8376 31.5479 78.6909 31.5176 78.4881 31.5016L78.5948 30.9787ZM82.6317 31.0961C82.372 31.0961 82.1363 31.0471 81.9246 30.9493C81.713 30.8497 81.5449 30.7065 81.4204 30.5197C81.2958 30.3312 81.2336 30.1035 81.2336 29.8367C81.2336 29.6019 81.2798 29.4116 81.3723 29.2657C81.4648 29.1181 81.5885 29.0025 81.7432 28.9189C81.898 28.8353 82.0687 28.773 82.2555 28.7321C82.444 28.6894 82.6335 28.6556 82.8238 28.6307C83.0728 28.5987 83.2747 28.5747 83.4295 28.5587C83.586 28.5409 83.6998 28.5115 83.771 28.4706C83.8439 28.4297 83.8804 28.3586 83.8804 28.2572V28.2358C83.8804 27.9726 83.8083 27.768 83.6642 27.6222C83.5219 27.4763 83.3058 27.4034 83.0159 27.4034C82.7153 27.4034 82.4796 27.4692 82.3088 27.6008C82.1381 27.7324 82.018 27.873 81.9486 28.0224L81.351 27.8089C81.4577 27.5599 81.6 27.366 81.7779 27.2273C81.9575 27.0868 82.1532 26.9889 82.3649 26.9338C82.5783 26.8769 82.7882 26.8484 82.9945 26.8484C83.1262 26.8484 83.2774 26.8644 83.4481 26.8964C83.6207 26.9267 83.787 26.9898 83.9471 27.0859C84.1089 27.1819 84.2432 27.3269 84.35 27.5208C84.4567 27.7147 84.51 27.9744 84.51 28.2999V31H83.8804V30.445H83.8483C83.8057 30.534 83.7345 30.6291 83.6349 30.7305C83.5353 30.8319 83.4028 30.9182 83.2373 30.9893C83.0719 31.0605 82.87 31.0961 82.6317 31.0961ZM82.7277 30.5304C82.9768 30.5304 83.1867 30.4815 83.3574 30.3837C83.53 30.2858 83.6598 30.1595 83.747 30.0048C83.8359 29.85 83.8804 29.6873 83.8804 29.5165V28.9402C83.8537 28.9722 83.795 29.0016 83.7043 29.0283C83.6153 29.0532 83.5122 29.0754 83.3948 29.095C83.2791 29.1128 83.1662 29.1288 83.0559 29.143C82.9474 29.1554 82.8594 29.1661 82.7918 29.175C82.6281 29.1964 82.4752 29.231 82.3329 29.2791C82.1923 29.3253 82.0785 29.3956 81.9913 29.4898C81.906 29.5823 81.8633 29.7086 81.8633 29.8687C81.8633 30.0875 81.9442 30.2529 82.1061 30.365C82.2697 30.4753 82.4769 30.5304 82.7277 30.5304ZM82.2155 26.4108L81.7245 26.3895C81.7245 26.1173 81.8019 25.895 81.9567 25.7225C82.1132 25.5481 82.3062 25.461 82.5356 25.461C82.637 25.461 82.7268 25.4788 82.8051 25.5144C82.8834 25.5481 82.9581 25.5873 83.0292 25.6317C83.1004 25.6762 83.1733 25.7162 83.248 25.7518C83.3245 25.7856 83.4108 25.8025 83.5068 25.8025C83.6082 25.8025 83.6936 25.7634 83.763 25.6851C83.8341 25.6051 83.8697 25.509 83.8697 25.397L84.35 25.4396C84.35 25.7171 84.2717 25.9377 84.1152 26.1013C83.9604 26.265 83.7683 26.3468 83.5388 26.3468C83.4161 26.3468 83.3147 26.3299 83.2347 26.2961C83.1546 26.2605 83.0835 26.2205 83.0212 26.176C82.959 26.1316 82.8932 26.0924 82.8238 26.0586C82.7544 26.0231 82.669 26.0053 82.5676 26.0053C82.4663 26.0053 82.3818 26.0453 82.3142 26.1254C82.2484 26.2036 82.2155 26.2988 82.2155 26.4108ZM87.3242 31.0854C86.9543 31.0854 86.6296 30.9973 86.3504 30.8212C86.0729 30.6451 85.8559 30.3988 85.6994 30.0822C85.5446 29.7656 85.4672 29.3956 85.4672 28.9722C85.4672 28.5453 85.5446 28.1727 85.6994 27.8543C85.8559 27.5359 86.0729 27.2886 86.3504 27.1126C86.6296 26.9365 86.9543 26.8484 87.3242 26.8484C87.6942 26.8484 88.0179 26.9365 88.2954 27.1126C88.5747 27.2886 88.7917 27.5359 88.9464 27.8543C89.103 28.1727 89.1812 28.5453 89.1812 28.9722C89.1812 29.3956 89.103 29.7656 88.9464 30.0822C88.7917 30.3988 88.5747 30.6451 88.2954 30.8212C88.0179 30.9973 87.6942 31.0854 87.3242 31.0854ZM87.3242 30.5197C87.6053 30.5197 87.8365 30.4477 88.0179 30.3036C88.1994 30.1595 88.3337 29.9701 88.4208 29.7353C88.508 29.5005 88.5516 29.2462 88.5516 28.9722C88.5516 28.6983 88.508 28.4431 88.4208 28.2065C88.3337 27.9699 88.1994 27.7787 88.0179 27.6328C87.8365 27.487 87.6053 27.4141 87.3242 27.4141C87.0432 27.4141 86.812 27.487 86.6305 27.6328C86.4491 27.7787 86.3148 27.9699 86.2276 28.2065C86.1405 28.4431 86.0969 28.6983 86.0969 28.9722C86.0969 29.2462 86.1405 29.5005 86.2276 29.7353C86.3148 29.9701 86.4491 30.1595 86.6305 30.3036C86.812 30.4477 87.0432 30.5197 87.3242 30.5197Z" fill="black"/>
<path d="M51.6617 41.5357H52.4515L54.3085 46.0715H54.3725L56.2295 41.5357H57.0193V47H56.4003V42.8484H56.3469L54.6393 47H54.0417L52.3341 42.8484H52.2807V47H51.6617V41.5357ZM58.2606 47V42.9018H58.8903V47H58.2606ZM58.5808 42.2187C58.4581 42.2187 58.3522 42.1769 58.2633 42.0933C58.1761 42.0097 58.1325 41.9092 58.1325 41.7918C58.1325 41.6744 58.1761 41.5739 58.2633 41.4903C58.3522 41.4067 58.4581 41.3649 58.5808 41.3649C58.7035 41.3649 58.8085 41.4067 58.8956 41.4903C58.9846 41.5739 59.029 41.6744 59.029 41.7918C59.029 41.9092 58.9846 42.0097 58.8956 42.0933C58.8085 42.1769 58.7035 42.2187 58.5808 42.2187ZM61.5911 47.0854C61.2496 47.0854 60.9481 46.9991 60.6866 46.8266C60.4251 46.6523 60.2206 46.4068 60.0729 46.0902C59.9253 45.7718 59.8515 45.3956 59.8515 44.9616C59.8515 44.5311 59.9253 44.1576 60.0729 43.8409C60.2206 43.5243 60.426 43.2798 60.6893 43.1072C60.9525 42.9347 61.2567 42.8484 61.6018 42.8484C61.8686 42.8484 62.0794 42.8929 62.2341 42.9818C62.3906 43.069 62.5098 43.1686 62.5916 43.2806C62.6752 43.3909 62.7402 43.4816 62.7864 43.5528H62.8398V41.5357H63.4694V47H62.8611V46.3703H62.7864C62.7402 46.445 62.6743 46.5393 62.589 46.6531C62.5036 46.7652 62.3817 46.8657 62.2234 46.9546C62.0651 47.0418 61.8543 47.0854 61.5911 47.0854ZM61.6765 46.5197C61.9291 46.5197 62.1425 46.4539 62.3168 46.3223C62.4911 46.1889 62.6237 46.0048 62.7144 45.77C62.8051 45.5334 62.8504 45.2604 62.8504 44.9509C62.8504 44.6449 62.806 44.3772 62.717 44.1478C62.6281 43.9165 62.4965 43.7369 62.3222 43.6088C62.1478 43.479 61.9326 43.4141 61.6765 43.4141C61.4097 43.4141 61.1873 43.4825 61.0094 43.6195C60.8333 43.7547 60.7008 43.9388 60.6119 44.1718C60.5247 44.403 60.4812 44.6627 60.4812 44.9509C60.4812 45.2426 60.5256 45.5076 60.6146 45.746C60.7053 45.9826 60.8387 46.1711 61.0148 46.3116C61.1927 46.4504 61.4132 46.5197 61.6765 46.5197ZM66.2576 47.0854C65.9161 47.0854 65.6146 46.9991 65.3531 46.8266C65.0917 46.6523 64.8871 46.4068 64.7395 46.0902C64.5918 45.7718 64.518 45.3956 64.518 44.9616C64.518 44.5311 64.5918 44.1576 64.7395 43.8409C64.8871 43.5243 65.0925 43.2798 65.3558 43.1072C65.6191 42.9347 65.9232 42.8484 66.2683 42.8484C66.5351 42.8484 66.7459 42.8929 66.9006 42.9818C67.0572 43.069 67.1763 43.1686 67.2582 43.2806C67.3418 43.3909 67.4067 43.4816 67.4529 43.5528H67.5063V41.5357H68.136V47H67.5276V46.3703H67.4529C67.4067 46.445 67.3409 46.5393 67.2555 46.6531C67.1701 46.7652 67.0483 46.8657 66.89 46.9546C66.7317 47.0418 66.5209 47.0854 66.2576 47.0854ZM66.343 46.5197C66.5956 46.5197 66.809 46.4539 66.9834 46.3223C67.1577 46.1889 67.2902 46.0048 67.3809 45.77C67.4716 45.5334 67.517 45.2604 67.517 44.9509C67.517 44.6449 67.4725 44.3772 67.3836 44.1478C67.2946 43.9165 67.163 43.7369 66.9887 43.6088C66.8144 43.479 66.5991 43.4141 66.343 43.4141C66.0762 43.4141 65.8539 43.4825 65.676 43.6195C65.4999 43.7547 65.3674 43.9388 65.2784 44.1718C65.1913 44.403 65.1477 44.6627 65.1477 44.9509C65.1477 45.2426 65.1922 45.5076 65.2811 45.746C65.3718 45.9826 65.5052 46.1711 65.6813 46.3116C65.8592 46.4504 66.0798 46.5197 66.343 46.5197ZM70.0063 41.5357V47H69.3767V41.5357H70.0063ZM72.8779 47.0854C72.483 47.0854 72.1424 46.9982 71.856 46.8239C71.5714 46.6478 71.3517 46.4023 71.197 46.0875C71.044 45.7709 70.9675 45.4027 70.9675 44.9829C70.9675 44.5631 71.044 44.1931 71.197 43.873C71.3517 43.551 71.567 43.3002 71.8427 43.1206C72.1201 42.9391 72.4439 42.8484 72.8139 42.8484C73.0273 42.8484 73.2381 42.884 73.4462 42.9551C73.6543 43.0263 73.8437 43.1419 74.0145 43.302C74.1853 43.4603 74.3213 43.6702 74.4227 43.9317C74.5241 44.1931 74.5748 44.5151 74.5748 44.8975V45.1643H71.4158V44.62H73.9345C73.9345 44.3888 73.8882 44.1825 73.7957 44.001C73.705 43.8196 73.5752 43.6764 73.4062 43.5715C73.239 43.4665 73.0415 43.4141 72.8139 43.4141C72.5631 43.4141 72.346 43.4763 72.1628 43.6008C71.9814 43.7236 71.8418 43.8836 71.7439 44.0811C71.6461 44.2785 71.5972 44.4902 71.5972 44.7161V45.079C71.5972 45.3885 71.6506 45.6508 71.7573 45.8661C71.8658 46.0795 72.0161 46.2423 72.2082 46.3543C72.4003 46.4646 72.6235 46.5197 72.8779 46.5197C73.0433 46.5197 73.1927 46.4966 73.3261 46.4504C73.4613 46.4023 73.5778 46.3312 73.6757 46.2369C73.7735 46.1409 73.8491 46.0217 73.9024 45.8794L74.5108 46.0502C74.4467 46.2565 74.3391 46.4379 74.1879 46.5944C74.0367 46.7492 73.85 46.8702 73.6276 46.9573C73.4053 47.0427 73.1554 47.0854 72.8779 47.0854ZM76.4612 47L75.2125 42.9018H75.8742L76.76 46.0395H76.8027L77.6778 42.9018H78.3502L79.2147 46.0288H79.2574L80.1432 42.9018H80.8049L79.5562 47H78.9372L78.0407 43.8516H77.9767L77.0802 47H76.4612ZM82.8433 47.0961C82.5836 47.0961 82.3479 47.0471 82.1363 46.9493C81.9246 46.8497 81.7565 46.7065 81.632 46.5197C81.5075 46.3312 81.4452 46.1035 81.4452 45.8367C81.4452 45.6019 81.4915 45.4116 81.584 45.2657C81.6765 45.1181 81.8001 45.0025 81.9548 44.9189C82.1096 44.8353 82.2803 44.773 82.4671 44.7321C82.6556 44.6894 82.8451 44.6556 83.0354 44.6307C83.2844 44.5987 83.4863 44.5747 83.6411 44.5587C83.7976 44.5409 83.9114 44.5115 83.9826 44.4706C84.0555 44.4297 84.092 44.3586 84.092 44.2572V44.2358C84.092 43.9726 84.0199 43.768 83.8759 43.6222C83.7336 43.4763 83.5175 43.4034 83.2275 43.4034C82.9269 43.4034 82.6912 43.4692 82.5205 43.6008C82.3497 43.7324 82.2296 43.873 82.1603 44.0224L81.5626 43.8089C81.6693 43.5599 81.8116 43.366 81.9895 43.2273C82.1692 43.0868 82.3648 42.9889 82.5765 42.9338C82.7899 42.8769 82.9998 42.8484 83.2062 42.8484C83.3378 42.8484 83.489 42.8644 83.6598 42.8964C83.8323 42.9267 83.9986 42.9898 84.1587 43.0859C84.3206 43.1819 84.4548 43.3269 84.5616 43.5208C84.6683 43.7147 84.7217 43.9744 84.7217 44.2999V47H84.092V46.445H84.06C84.0173 46.534 83.9461 46.6291 83.8465 46.7305C83.7469 46.8319 83.6144 46.9182 83.449 46.9893C83.2835 47.0605 83.0817 47.0961 82.8433 47.0961ZM82.9394 46.5304C83.1884 46.5304 83.3983 46.4815 83.569 46.3837C83.7416 46.2858 83.8714 46.1595 83.9586 46.0048C84.0475 45.85 84.092 45.6873 84.092 45.5165V44.9402C84.0653 44.9722 84.0066 45.0016 83.9159 45.0283C83.827 45.0532 83.7238 45.0754 83.6064 45.095C83.4908 45.1128 83.3778 45.1288 83.2675 45.143C83.159 45.1554 83.071 45.1661 83.0034 45.175C82.8397 45.1964 82.6868 45.231 82.5445 45.2791C82.404 45.3253 82.2901 45.3956 82.203 45.4898C82.1176 45.5823 82.0749 45.7086 82.0749 45.8687C82.0749 46.0875 82.1558 46.2529 82.3177 46.365C82.4813 46.4753 82.6886 46.5304 82.9394 46.5304ZM85.871 47V42.9018H86.4793V43.5208H86.522C86.5967 43.318 86.7319 43.1535 86.9275 43.0272C87.1232 42.9009 87.3438 42.8377 87.5892 42.8377C87.6355 42.8377 87.6933 42.8386 87.7626 42.8404C87.832 42.8422 87.8845 42.8449 87.9201 42.8484V43.4888C87.8987 43.4834 87.8498 43.4754 87.7733 43.4647C87.6986 43.4523 87.6195 43.4461 87.5359 43.4461C87.3366 43.4461 87.1588 43.4879 87.0022 43.5715C86.8475 43.6533 86.7248 43.7671 86.634 43.913C86.5451 44.0571 86.5006 44.2216 86.5006 44.4066V47H85.871ZM90.26 47.0854C89.8651 47.0854 89.5245 46.9982 89.2381 46.8239C88.9535 46.6478 88.7338 46.4023 88.5791 46.0875C88.4261 45.7709 88.3496 45.4027 88.3496 44.9829C88.3496 44.5631 88.4261 44.1931 88.5791 43.873C88.7338 43.551 88.9491 43.3002 89.2248 43.1206C89.5023 42.9391 89.826 42.8484 90.196 42.8484C90.4094 42.8484 90.6202 42.884 90.8283 42.9551C91.0364 43.0263 91.2259 43.1419 91.3966 43.302C91.5674 43.4603 91.7035 43.6702 91.8048 43.9317C91.9062 44.1931 91.9569 44.5151 91.9569 44.8975V45.1643H88.7979V44.62H91.3166C91.3166 44.3888 91.2703 44.1825 91.1778 44.001C91.0871 43.8196 90.9573 43.6764 90.7883 43.5715C90.6211 43.4665 90.4236 43.4141 90.196 43.4141C89.9452 43.4141 89.7282 43.4763 89.5449 43.6008C89.3635 43.7236 89.2239 43.8836 89.1261 44.0811C89.0282 44.2785 88.9793 44.4902 88.9793 44.7161V45.079C88.9793 45.3885 89.0327 45.6508 89.1394 45.8661C89.2479 46.0795 89.3982 46.2423 89.5903 46.3543C89.7824 46.4646 90.0056 46.5197 90.26 46.5197C90.4254 46.5197 90.5748 46.4966 90.7082 46.4504C90.8434 46.4023 90.9599 46.3312 91.0578 46.2369C91.1556 46.1409 91.2312 46.0217 91.2846 45.8794L91.8929 46.0502C91.8289 46.2565 91.7212 46.4379 91.57 46.5944C91.4189 46.7492 91.2321 46.8702 91.0097 46.9573C90.7874 47.0427 90.5375 47.0854 90.26 47.0854Z" fill="black"/>
<path d="M51.6617 41.5357H52.4515L54.3085 46.0715H54.3725L56.2295 41.5357H57.0193V47H56.4003V42.8484H56.3469L54.6393 47H54.0417L52.3341 42.8484H52.2807V47H51.6617V41.5357ZM58.2606 47V42.9018H58.8903V47H58.2606ZM58.5808 42.2187C58.4581 42.2187 58.3522 42.1769 58.2633 42.0933C58.1761 42.0097 58.1325 41.9092 58.1325 41.7918C58.1325 41.6744 58.1761 41.5739 58.2633 41.4903C58.3522 41.4067 58.4581 41.3649 58.5808 41.3649C58.7035 41.3649 58.8085 41.4067 58.8956 41.4903C58.9846 41.5739 59.029 41.6744 59.029 41.7918C59.029 41.9092 58.9846 42.0097 58.8956 42.0933C58.8085 42.1769 58.7035 42.2187 58.5808 42.2187ZM61.5911 47.0854C61.2496 47.0854 60.9481 46.9991 60.6866 46.8266C60.4251 46.6523 60.2206 46.4068 60.0729 46.0902C59.9253 45.7718 59.8515 45.3956 59.8515 44.9616C59.8515 44.5311 59.9253 44.1576 60.0729 43.8409C60.2206 43.5243 60.426 43.2798 60.6893 43.1072C60.9525 42.9347 61.2567 42.8484 61.6018 42.8484C61.8686 42.8484 62.0794 42.8929 62.2341 42.9818C62.3906 43.069 62.5098 43.1686 62.5916 43.2806C62.6752 43.3909 62.7402 43.4816 62.7864 43.5528H62.8398V41.5357H63.4694V47H62.8611V46.3703H62.7864C62.7402 46.445 62.6743 46.5393 62.589 46.6531C62.5036 46.7652 62.3817 46.8657 62.2234 46.9546C62.0651 47.0418 61.8543 47.0854 61.5911 47.0854ZM61.6765 46.5197C61.9291 46.5197 62.1425 46.4539 62.3168 46.3223C62.4911 46.1889 62.6237 46.0048 62.7144 45.77C62.8051 45.5334 62.8504 45.2604 62.8504 44.9509C62.8504 44.6449 62.806 44.3772 62.717 44.1478C62.6281 43.9165 62.4965 43.7369 62.3222 43.6088C62.1478 43.479 61.9326 43.4141 61.6765 43.4141C61.4097 43.4141 61.1873 43.4825 61.0094 43.6195C60.8333 43.7547 60.7008 43.9388 60.6119 44.1718C60.5247 44.403 60.4812 44.6627 60.4812 44.9509C60.4812 45.2426 60.5256 45.5076 60.6146 45.746C60.7053 45.9826 60.8387 46.1711 61.0148 46.3116C61.1927 46.4504 61.4132 46.5197 61.6765 46.5197ZM66.2576 47.0854C65.9161 47.0854 65.6146 46.9991 65.3531 46.8266C65.0917 46.6523 64.8871 46.4068 64.7395 46.0902C64.5918 45.7718 64.518 45.3956 64.518 44.9616C64.518 44.5311 64.5918 44.1576 64.7395 43.8409C64.8871 43.5243 65.0925 43.2798 65.3558 43.1072C65.6191 42.9347 65.9232 42.8484 66.2683 42.8484C66.5351 42.8484 66.7459 42.8929 66.9006 42.9818C67.0572 43.069 67.1763 43.1686 67.2582 43.2806C67.3418 43.3909 67.4067 43.4816 67.4529 43.5528H67.5063V41.5357H68.136V47H67.5276V46.3703H67.4529C67.4067 46.445 67.3409 46.5393 67.2555 46.6531C67.1701 46.7652 67.0483 46.8657 66.89 46.9546C66.7317 47.0418 66.5209 47.0854 66.2576 47.0854ZM66.343 46.5197C66.5956 46.5197 66.809 46.4539 66.9834 46.3223C67.1577 46.1889 67.2902 46.0048 67.3809 45.77C67.4716 45.5334 67.517 45.2604 67.517 44.9509C67.517 44.6449 67.4725 44.3772 67.3836 44.1478C67.2946 43.9165 67.163 43.7369 66.9887 43.6088C66.8144 43.479 66.5991 43.4141 66.343 43.4141C66.0762 43.4141 65.8539 43.4825 65.676 43.6195C65.4999 43.7547 65.3674 43.9388 65.2784 44.1718C65.1913 44.403 65.1477 44.6627 65.1477 44.9509C65.1477 45.2426 65.1922 45.5076 65.2811 45.746C65.3718 45.9826 65.5052 46.1711 65.6813 46.3116C65.8592 46.4504 66.0798 46.5197 66.343 46.5197ZM70.0063 41.5357V47H69.3767V41.5357H70.0063ZM72.8779 47.0854C72.483 47.0854 72.1424 46.9982 71.856 46.8239C71.5714 46.6478 71.3517 46.4023 71.197 46.0875C71.044 45.7709 70.9675 45.4027 70.9675 44.9829C70.9675 44.5631 71.044 44.1931 71.197 43.873C71.3517 43.551 71.567 43.3002 71.8427 43.1206C72.1201 42.9391 72.4439 42.8484 72.8139 42.8484C73.0273 42.8484 73.2381 42.884 73.4462 42.9551C73.6543 43.0263 73.8437 43.1419 74.0145 43.302C74.1853 43.4603 74.3213 43.6702 74.4227 43.9317C74.5241 44.1931 74.5748 44.5151 74.5748 44.8975V45.1643H71.4158V44.62H73.9345C73.9345 44.3888 73.8882 44.1825 73.7957 44.001C73.705 43.8196 73.5752 43.6764 73.4062 43.5715C73.239 43.4665 73.0415 43.4141 72.8139 43.4141C72.5631 43.4141 72.346 43.4763 72.1628 43.6008C71.9814 43.7236 71.8418 43.8836 71.7439 44.0811C71.6461 44.2785 71.5972 44.4902 71.5972 44.7161V45.079C71.5972 45.3885 71.6506 45.6508 71.7573 45.8661C71.8658 46.0795 72.0161 46.2423 72.2082 46.3543C72.4003 46.4646 72.6235 46.5197 72.8779 46.5197C73.0433 46.5197 73.1927 46.4966 73.3261 46.4504C73.4613 46.4023 73.5778 46.3312 73.6757 46.2369C73.7735 46.1409 73.8491 46.0217 73.9024 45.8794L74.5108 46.0502C74.4467 46.2565 74.3391 46.4379 74.1879 46.5944C74.0367 46.7492 73.85 46.8702 73.6276 46.9573C73.4053 47.0427 73.1554 47.0854 72.8779 47.0854ZM76.4612 47L75.2125 42.9018H75.8742L76.76 46.0395H76.8027L77.6778 42.9018H78.3502L79.2147 46.0288H79.2574L80.1432 42.9018H80.8049L79.5562 47H78.9372L78.0407 43.8516H77.9767L77.0802 47H76.4612ZM82.8433 47.0961C82.5836 47.0961 82.3479 47.0471 82.1363 46.9493C81.9246 46.8497 81.7565 46.7065 81.632 46.5197C81.5075 46.3312 81.4452 46.1035 81.4452 45.8367C81.4452 45.6019 81.4915 45.4116 81.584 45.2657C81.6765 45.1181 81.8001 45.0025 81.9548 44.9189C82.1096 44.8353 82.2803 44.773 82.4671 44.7321C82.6556 44.6894 82.8451 44.6556 83.0354 44.6307C83.2844 44.5987 83.4863 44.5747 83.6411 44.5587C83.7976 44.5409 83.9114 44.5115 83.9826 44.4706C84.0555 44.4297 84.092 44.3586 84.092 44.2572V44.2358C84.092 43.9726 84.0199 43.768 83.8759 43.6222C83.7336 43.4763 83.5175 43.4034 83.2275 43.4034C82.9269 43.4034 82.6912 43.4692 82.5205 43.6008C82.3497 43.7324 82.2296 43.873 82.1603 44.0224L81.5626 43.8089C81.6693 43.5599 81.8116 43.366 81.9895 43.2273C82.1692 43.0868 82.3648 42.9889 82.5765 42.9338C82.7899 42.8769 82.9998 42.8484 83.2062 42.8484C83.3378 42.8484 83.489 42.8644 83.6598 42.8964C83.8323 42.9267 83.9986 42.9898 84.1587 43.0859C84.3206 43.1819 84.4548 43.3269 84.5616 43.5208C84.6683 43.7147 84.7217 43.9744 84.7217 44.2999V47H84.092V46.445H84.06C84.0173 46.534 83.9461 46.6291 83.8465 46.7305C83.7469 46.8319 83.6144 46.9182 83.449 46.9893C83.2835 47.0605 83.0817 47.0961 82.8433 47.0961ZM82.9394 46.5304C83.1884 46.5304 83.3983 46.4815 83.569 46.3837C83.7416 46.2858 83.8714 46.1595 83.9586 46.0048C84.0475 45.85 84.092 45.6873 84.092 45.5165V44.9402C84.0653 44.9722 84.0066 45.0016 83.9159 45.0283C83.827 45.0532 83.7238 45.0754 83.6064 45.095C83.4908 45.1128 83.3778 45.1288 83.2675 45.143C83.159 45.1554 83.071 45.1661 83.0034 45.175C82.8397 45.1964 82.6868 45.231 82.5445 45.2791C82.404 45.3253 82.2901 45.3956 82.203 45.4898C82.1176 45.5823 82.0749 45.7086 82.0749 45.8687C82.0749 46.0875 82.1558 46.2529 82.3177 46.365C82.4813 46.4753 82.6886 46.5304 82.9394 46.5304ZM85.871 47V42.9018H86.4793V43.5208H86.522C86.5967 43.318 86.7319 43.1535 86.9275 43.0272C87.1232 42.9009 87.3438 42.8377 87.5892 42.8377C87.6355 42.8377 87.6933 42.8386 87.7626 42.8404C87.832 42.8422 87.8845 42.8449 87.9201 42.8484V43.4888C87.8987 43.4834 87.8498 43.4754 87.7733 43.4647C87.6986 43.4523 87.6195 43.4461 87.5359 43.4461C87.3366 43.4461 87.1588 43.4879 87.0022 43.5715C86.8475 43.6533 86.7248 43.7671 86.634 43.913C86.5451 44.0571 86.5006 44.2216 86.5006 44.4066V47H85.871ZM90.26 47.0854C89.8651 47.0854 89.5245 46.9982 89.2381 46.8239C88.9535 46.6478 88.7338 46.4023 88.5791 46.0875C88.4261 45.7709 88.3496 45.4027 88.3496 44.9829C88.3496 44.5631 88.4261 44.1931 88.5791 43.873C88.7338 43.551 88.9491 43.3002 89.2248 43.1206C89.5023 42.9391 89.826 42.8484 90.196 42.8484C90.4094 42.8484 90.6202 42.884 90.8283 42.9551C91.0364 43.0263 91.2259 43.1419 91.3966 43.302C91.5674 43.4603 91.7035 43.6702 91.8048 43.9317C91.9062 44.1931 91.9569 44.5151 91.9569 44.8975V45.1643H88.7979V44.62H91.3166C91.3166 44.3888 91.2703 44.1825 91.1778 44.001C91.0871 43.8196 90.9573 43.6764 90.7883 43.5715C90.6211 43.4665 90.4236 43.4141 90.196 43.4141C89.9452 43.4141 89.7282 43.4763 89.5449 43.6008C89.3635 43.7236 89.2239 43.8836 89.1261 44.0811C89.0282 44.2785 88.9793 44.4902 88.9793 44.7161V45.079C88.9793 45.3885 89.0327 45.6508 89.1394 45.8661C89.2479 46.0795 89.3982 46.2423 89.5903 46.3543C89.7824 46.4646 90.0056 46.5197 90.26 46.5197C90.4254 46.5197 90.5748 46.4966 90.7082 46.4504C90.8434 46.4023 90.9599 46.3312 91.0578 46.2369C91.1556 46.1409 91.2312 46.0217 91.2846 45.8794L91.8929 46.0502C91.8289 46.2565 91.7212 46.4379 91.57 46.5944C91.4189 46.7492 91.2321 46.8702 91.0097 46.9573C90.7874 47.0427 90.5375 47.0854 90.26 47.0854Z" fill="black"/>
<path d="M114.363 73.1227V72.5357H118.461V73.1227H116.743V78H116.081V73.1227H114.363ZM118.971 78V73.9018H119.58V74.5208H119.622C119.697 74.318 119.832 74.1535 120.028 74.0272C120.224 73.9009 120.444 73.8377 120.69 73.8377C120.736 73.8377 120.794 73.8386 120.863 73.8404C120.932 73.8422 120.985 73.8449 121.02 73.8484V74.4888C120.999 74.4834 120.95 74.4754 120.874 74.4647C120.799 74.4523 120.72 74.4461 120.636 74.4461C120.437 74.4461 120.259 74.4879 120.103 74.5715C119.948 74.6533 119.825 74.7671 119.734 74.913C119.646 75.0571 119.601 75.2216 119.601 75.4066V78H118.971ZM122.973 78.0961C122.713 78.0961 122.477 78.0471 122.266 77.9493C122.054 77.8497 121.886 77.7065 121.762 77.5197C121.637 77.3312 121.575 77.1035 121.575 76.8367C121.575 76.6019 121.621 76.4116 121.714 76.2657C121.806 76.1181 121.93 76.0025 122.084 75.9189C122.239 75.8353 122.41 75.773 122.597 75.7321C122.785 75.6894 122.975 75.6556 123.165 75.6307C123.414 75.5987 123.616 75.5747 123.771 75.5587C123.927 75.5409 124.041 75.5115 124.112 75.4706C124.185 75.4297 124.222 75.3586 124.222 75.2572V75.2358C124.222 74.9726 124.15 74.768 124.005 74.6222C123.863 74.4763 123.647 74.4034 123.357 74.4034C123.056 74.4034 122.821 74.4692 122.65 74.6008C122.479 74.7324 122.359 74.873 122.29 75.0224L121.692 74.8089C121.799 74.5599 121.941 74.366 122.119 74.2273C122.299 74.0868 122.494 73.9889 122.706 73.9338C122.92 73.8769 123.129 73.8484 123.336 73.8484C123.467 73.8484 123.619 73.8644 123.789 73.8964C123.962 73.9267 124.128 73.9898 124.288 74.0859C124.45 74.1819 124.584 74.3269 124.691 74.5208C124.798 74.7147 124.851 74.9744 124.851 75.2999V78H124.222V77.445H124.19C124.147 77.534 124.076 77.6291 123.976 77.7305C123.876 77.8319 123.744 77.9182 123.579 77.9893C123.413 78.0605 123.211 78.0961 122.973 78.0961ZM123.069 77.5304C123.318 77.5304 123.528 77.4815 123.699 77.3837C123.871 77.2858 124.001 77.1595 124.088 77.0048C124.177 76.85 124.222 76.6873 124.222 76.5165V75.9402C124.195 75.9722 124.136 76.0016 124.045 76.0283C123.957 76.0532 123.853 76.0754 123.736 76.095C123.62 76.1128 123.507 76.1288 123.397 76.143C123.289 76.1554 123.201 76.1661 123.133 76.175C122.969 76.1964 122.816 76.231 122.674 76.2791C122.534 76.3253 122.42 76.3956 122.333 76.4898C122.247 76.5823 122.204 76.7086 122.204 76.8687C122.204 77.0875 122.285 77.2529 122.447 77.365C122.611 77.4753 122.818 77.5304 123.069 77.5304ZM126.63 75.5347V78H126.001V73.9018H126.609V74.5421H126.662C126.758 74.334 126.904 74.1668 127.1 74.0405C127.295 73.9124 127.548 73.8484 127.858 73.8484C128.135 73.8484 128.378 73.9053 128.586 74.0192C128.794 74.1312 128.956 74.302 129.072 74.5314C129.187 74.7591 129.245 75.0473 129.245 75.3959V78H128.615V75.4386C128.615 75.1167 128.532 74.8659 128.364 74.6862C128.197 74.5048 127.968 74.4141 127.676 74.4141C127.475 74.4141 127.295 74.4576 127.137 74.5448C126.981 74.6319 126.857 74.7591 126.766 74.9263C126.676 75.0935 126.63 75.2963 126.63 75.5347ZM133.298 74.8196L132.733 74.9797C132.697 74.8854 132.645 74.7938 132.575 74.7049C132.508 74.6142 132.415 74.5395 132.298 74.4808C132.181 74.4221 132.03 74.3927 131.847 74.3927C131.596 74.3927 131.387 74.4505 131.22 74.5661C131.055 74.68 130.972 74.8249 130.972 75.001C130.972 75.1576 131.029 75.2812 131.143 75.3719C131.256 75.4626 131.434 75.5382 131.676 75.5987L132.285 75.7481C132.651 75.837 132.924 75.9731 133.104 76.1563C133.283 76.3378 133.373 76.5717 133.373 76.858C133.373 77.0928 133.306 77.3027 133.17 77.4877C133.037 77.6727 132.85 77.8186 132.61 77.9253C132.37 78.032 132.091 78.0854 131.772 78.0854C131.354 78.0854 131.008 77.9947 130.734 77.8132C130.461 77.6318 130.287 77.3668 130.214 77.0181L130.812 76.8687C130.869 77.0893 130.976 77.2547 131.135 77.365C131.295 77.4753 131.504 77.5304 131.762 77.5304C132.055 77.5304 132.288 77.4682 132.461 77.3436C132.635 77.2174 132.722 77.0662 132.722 76.8901C132.722 76.7478 132.672 76.6286 132.573 76.5325C132.473 76.4347 132.32 76.3618 132.114 76.3138L131.431 76.1537C131.055 76.0647 130.78 75.9269 130.604 75.7401C130.429 75.5516 130.342 75.3159 130.342 75.0331C130.342 74.8018 130.407 74.5973 130.537 74.4194C130.669 74.2415 130.847 74.1019 131.073 74.0005C131.301 73.8991 131.559 73.8484 131.847 73.8484C132.253 73.8484 132.571 73.9373 132.802 74.1152C133.035 74.2931 133.201 74.5279 133.298 74.8196ZM134.321 79.5368V73.9018H134.929V74.5528H135.004C135.05 74.4816 135.114 74.3909 135.196 74.2806C135.28 74.1686 135.399 74.069 135.554 73.9818C135.71 73.8929 135.922 73.8484 136.189 73.8484C136.534 73.8484 136.838 73.9347 137.101 74.1072C137.364 74.2798 137.57 74.5243 137.718 74.8409C137.865 75.1576 137.939 75.5311 137.939 75.9616C137.939 76.3956 137.865 76.7718 137.718 77.0902C137.57 77.4068 137.365 77.6523 137.104 77.8266C136.842 77.9991 136.541 78.0854 136.199 78.0854C135.936 78.0854 135.725 78.0418 135.567 77.9546C135.409 77.8657 135.287 77.7652 135.202 77.6531C135.116 77.5393 135.05 77.445 135.004 77.3703H134.951V79.5368H134.321ZM134.94 75.9509C134.94 76.2604 134.985 76.5334 135.076 76.77C135.167 77.0048 135.299 77.1889 135.474 77.3223C135.648 77.4539 135.861 77.5197 136.114 77.5197C136.377 77.5197 136.597 77.4504 136.773 77.3116C136.951 77.1711 137.084 76.9826 137.173 76.746C137.264 76.5076 137.309 76.2426 137.309 75.9509C137.309 75.6627 137.265 75.403 137.176 75.1718C137.089 74.9388 136.956 74.7547 136.778 74.6195C136.602 74.4825 136.381 74.4141 136.114 74.4141C135.858 74.4141 135.643 74.479 135.468 74.6088C135.294 74.7369 135.162 74.9165 135.073 75.1478C134.985 75.3772 134.94 75.6449 134.94 75.9509ZM140.564 78.0854C140.194 78.0854 139.87 77.9973 139.591 77.8212C139.313 77.6451 139.096 77.3988 138.94 77.0822C138.785 76.7656 138.707 76.3956 138.707 75.9722C138.707 75.5453 138.785 75.1727 138.94 74.8543C139.096 74.5359 139.313 74.2886 139.591 74.1126C139.87 73.9365 140.194 73.8484 140.564 73.8484C140.934 73.8484 141.258 73.9365 141.536 74.1126C141.815 74.2886 142.032 74.5359 142.187 74.8543C142.343 75.1727 142.421 75.5453 142.421 75.9722C142.421 76.3956 142.343 76.7656 142.187 77.0822C142.032 77.3988 141.815 77.6451 141.536 77.8212C141.258 77.9973 140.934 78.0854 140.564 78.0854ZM140.564 77.5197C140.845 77.5197 141.077 77.4477 141.258 77.3036C141.44 77.1595 141.574 76.9701 141.661 76.7353C141.748 76.5005 141.792 76.2462 141.792 75.9722C141.792 75.6983 141.748 75.4431 141.661 75.2065C141.574 74.9699 141.44 74.7787 141.258 74.6328C141.077 74.487 140.845 74.4141 140.564 74.4141C140.283 74.4141 140.052 74.487 139.871 74.6328C139.689 74.7787 139.555 74.9699 139.468 75.2065C139.381 75.4431 139.337 75.6983 139.337 75.9722C139.337 76.2462 139.381 76.5005 139.468 76.7353C139.555 76.9701 139.689 77.1595 139.871 77.3036C140.052 77.4477 140.283 77.5197 140.564 77.5197ZM143.383 78V73.9018H143.991V74.5208H144.034C144.108 74.318 144.244 74.1535 144.439 74.0272C144.635 73.9009 144.855 73.8377 145.101 73.8377C145.147 73.8377 145.205 73.8386 145.274 73.8404C145.344 73.8422 145.396 73.8449 145.432 73.8484V74.4888C145.41 74.4834 145.361 74.4754 145.285 74.4647C145.21 74.4523 145.131 74.4461 145.048 74.4461C144.848 74.4461 144.67 74.4879 144.514 74.5715C144.359 74.6533 144.236 74.7671 144.146 74.913C144.057 75.0571 144.012 75.2216 144.012 75.4066V78H143.383ZM148.217 73.9018V74.4354H146.093V73.9018H148.217ZM146.712 72.9199H147.342V76.826C147.342 77.0039 147.368 77.1373 147.419 77.2262C147.473 77.3134 147.54 77.3721 147.622 77.4023C147.706 77.4308 147.794 77.445 147.886 77.445C147.956 77.445 148.013 77.4415 148.057 77.4344C148.102 77.4255 148.137 77.4184 148.164 77.413L148.292 77.9787C148.249 77.9947 148.19 78.0107 148.113 78.0267C148.037 78.0445 147.94 78.0534 147.822 78.0534C147.645 78.0534 147.47 78.0151 147.299 77.9386C147.13 77.8621 146.99 77.7456 146.878 77.5891C146.768 77.4326 146.712 77.2351 146.712 76.9968V72.9199ZM150.839 78.0854C150.444 78.0854 150.103 77.9982 149.817 77.8239C149.532 77.6478 149.313 77.4023 149.158 77.0875C149.005 76.7709 148.928 76.4027 148.928 75.9829C148.928 75.5631 149.005 75.1931 149.158 74.873C149.313 74.551 149.528 74.3002 149.803 74.1206C150.081 73.9391 150.405 73.8484 150.775 73.8484C150.988 73.8484 151.199 73.884 151.407 73.9551C151.615 74.0263 151.805 74.1419 151.975 74.302C152.146 74.4603 152.282 74.6702 152.384 74.9317C152.485 75.1931 152.536 75.5151 152.536 75.8975V76.1643H149.377V75.62H151.895C151.895 75.3888 151.849 75.1825 151.757 75.001C151.666 74.8196 151.536 74.6764 151.367 74.5715C151.2 74.4665 151.002 74.4141 150.775 74.4141C150.524 74.4141 150.307 74.4763 150.124 74.6008C149.942 74.7236 149.803 74.8836 149.705 75.0811C149.607 75.2785 149.558 75.4902 149.558 75.7161V76.079C149.558 76.3885 149.611 76.6508 149.718 76.8661C149.827 77.0795 149.977 77.2423 150.169 77.3543C150.361 77.4646 150.584 77.5197 150.839 77.5197C151.004 77.5197 151.154 77.4966 151.287 77.4504C151.422 77.4023 151.539 77.3312 151.636 77.2369C151.734 77.1409 151.81 77.0217 151.863 76.8794L152.472 77.0502C152.408 77.2565 152.3 77.4379 152.149 77.5944C151.998 77.7492 151.811 77.8702 151.588 77.9573C151.366 78.0427 151.116 78.0854 150.839 78.0854Z" fill="black"/>
<mask id="path-9-inside-1_865_157" fill="white">
<path d="M45 55H99V65H45V55Z"/>
</mask>
<path d="M45 55H99V65H45V55Z" fill="#D9D9D9"/>
<path d="M45 55V54.5H44.5V55H45ZM99 55H99.5V54.5H99V55ZM45 55.5H99V54.5H45V55.5ZM98.5 55V65H99.5V55H98.5ZM45.5 65V55H44.5V65H45.5Z" fill="black" mask="url(#path-9-inside-1_865_157)"/>
<mask id="path-11-inside-2_865_157" fill="white">
<path d="M45 65H99V75H45V65Z"/>
</mask>
<path d="M45 65H99V75H45V65Z" fill="#D9D9D9"/>
<path d="M45 65V64.5H44.5V65H45ZM99 65H99.5V64.5H99V65ZM45 65.5H99V64.5H45V65.5ZM98.5 65V75H99.5V65H98.5ZM45.5 75V65H44.5V75H45.5Z" fill="black" mask="url(#path-11-inside-2_865_157)"/>
<mask id="path-13-inside-3_865_157" fill="white">
<path d="M45 75H99V85H45V75Z"/>
</mask>
<path d="M45 75H99V85H45V75Z" fill="#D9D9D9"/>
<path d="M45 75V74.5H44.5V75H45ZM99 75H99.5V74.5H99V75ZM45 75.5H99V74.5H45V75.5ZM98.5 75V85H99.5V75H98.5ZM45.5 85V75H44.5V85H45.5Z" fill="black" mask="url(#path-13-inside-3_865_157)"/>
<mask id="path-15-inside-4_865_157" fill="white">
<path d="M45 75H99V85H45V75Z"/>
</mask>
<path d="M45 75H99V85H45V75Z" fill="#D9D9D9"/>
<path d="M45 75V74.5H44.5V75H45ZM99 75H99.5V74.5H99V75ZM45 75.5H99V74.5H45V75.5ZM98.5 75V85H99.5V75H98.5ZM45.5 85V75H44.5V85H45.5Z" fill="black" mask="url(#path-15-inside-4_865_157)"/>
<rect x="45.25" y="85.25" width="53.5" height="9.5" fill="#D9D9D9" stroke="black" stroke-width="0.5"/>
<path d="M60.6617 63V57.5357H61.3234V62.413H63.8634V63H60.6617ZM64.7919 63V62.5197L66.5956 60.5453C66.8073 60.3141 66.9816 60.1131 67.1185 59.9423C67.2555 59.7698 67.3569 59.6079 67.4227 59.4567C67.4903 59.3038 67.5241 59.1437 67.5241 58.9765C67.5241 58.7844 67.4778 58.6181 67.3853 58.4775C67.2946 58.337 67.1701 58.2285 67.0118 58.152C66.8535 58.0755 66.6756 58.0373 66.4782 58.0373C66.2683 58.0373 66.0851 58.0809 65.9286 58.168C65.7738 58.2534 65.6537 58.3735 65.5684 58.5282C65.4848 58.683 65.443 58.8644 65.443 59.0725H64.8133C64.8133 58.7524 64.8871 58.4713 65.0347 58.2294C65.1824 57.9875 65.3834 57.799 65.6377 57.6638C65.8939 57.5286 66.1811 57.461 66.4995 57.461C66.8197 57.461 67.1034 57.5286 67.3507 57.6638C67.5979 57.799 67.7918 57.9813 67.9323 58.2107C68.0728 58.4402 68.1431 58.6954 68.1431 58.9765C68.1431 59.1775 68.1066 59.374 68.0337 59.5661C67.9625 59.7565 67.838 59.969 67.6602 60.2038C67.4841 60.4368 67.2395 60.7214 66.9264 61.0576L65.6991 62.3703V62.413H68.2391V63H64.7919ZM73.8342 59.2433H73.1725C73.1334 59.053 73.0649 58.8858 72.967 58.7417C72.871 58.5976 72.7536 58.4767 72.6149 58.3788C72.4779 58.2792 72.3258 58.2045 72.1586 58.1547C71.9914 58.1049 71.8171 58.08 71.6357 58.08C71.3048 58.08 71.0051 58.1636 70.7365 58.3308C70.4697 58.498 70.2571 58.7444 70.0988 59.0699C69.9423 59.3954 69.864 59.7947 69.864 60.2678C69.864 60.741 69.9423 61.1403 70.0988 61.4658C70.2571 61.7913 70.4697 62.0377 70.7365 62.2049C71.0051 62.3721 71.3048 62.4557 71.6357 62.4557C71.8171 62.4557 71.9914 62.4308 72.1586 62.381C72.3258 62.3312 72.4779 62.2574 72.6149 62.1595C72.7536 62.0599 72.871 61.9381 72.967 61.794C73.0649 61.6482 73.1334 61.481 73.1725 61.2924H73.8342C73.7844 61.5717 73.6937 61.8216 73.562 62.0421C73.4304 62.2627 73.2668 62.4504 73.0711 62.6051C72.8754 62.7581 72.6558 62.8746 72.4121 62.9546C72.1702 63.0347 71.9114 63.0747 71.6357 63.0747C71.1696 63.0747 70.7552 62.9609 70.3923 62.7332C70.0295 62.5055 69.744 62.1818 69.5358 61.762C69.3277 61.3422 69.2237 60.8442 69.2237 60.2678C69.2237 59.6915 69.3277 59.1935 69.5358 58.7737C69.744 58.3539 70.0295 58.0302 70.3923 57.8025C70.7552 57.5748 71.1696 57.461 71.6357 57.461C71.9114 57.461 72.1702 57.501 72.4121 57.5811C72.6558 57.6611 72.8754 57.7785 73.0711 57.9332C73.2668 58.0862 73.4304 58.273 73.562 58.4936C73.6937 58.7123 73.7844 58.9622 73.8342 59.2433ZM75.1276 63H74.4338L76.4403 57.5357H77.1233L79.1297 63H78.436L76.8031 58.4002H76.7604L75.1276 63ZM75.3837 60.8655H78.1799V61.4525H75.3837V60.8655ZM79.9809 63V57.5357H81.8272C82.2559 57.5357 82.6063 57.6131 82.8784 57.7678C83.1524 57.9208 83.3551 58.128 83.4868 58.3895C83.6184 58.651 83.6842 58.9427 83.6842 59.2646C83.6842 59.5866 83.6184 59.8792 83.4868 60.1424C83.3569 60.4057 83.1559 60.6156 82.8838 60.7721C82.6116 60.9269 82.263 61.0042 81.8379 61.0042H80.5145V60.4173H81.8165C82.11 60.4173 82.3457 60.3666 82.5236 60.2652C82.7014 60.1638 82.8304 60.0268 82.9105 59.8543C82.9923 59.68 83.0332 59.4834 83.0332 59.2646C83.0332 59.0459 82.9923 58.8502 82.9105 58.6777C82.8304 58.5051 82.7006 58.3699 82.5209 58.2721C82.3413 58.1725 82.1029 58.1227 81.8059 58.1227H80.6426V63H79.9809Z" fill="black"/>
<path d="M48.6617 73V67.5357H49.3234V72.413H51.8634V73H48.6617ZM52.8026 73V68.9018H53.4323V73H52.8026ZM53.1228 68.2187C53.0001 68.2187 52.8942 68.1769 52.8053 68.0933C52.7181 68.0097 52.6745 67.9092 52.6745 67.7918C52.6745 67.6744 52.7181 67.5739 52.8053 67.4903C52.8942 67.4067 53.0001 67.3649 53.1228 67.3649C53.2455 67.3649 53.3505 67.4067 53.4376 67.4903C53.5266 67.5739 53.571 67.6744 53.571 67.7918C53.571 67.9092 53.5266 68.0097 53.4376 68.0933C53.3505 68.1769 53.2455 68.2187 53.1228 68.2187ZM55.2153 70.5347V73H54.5856V68.9018H55.1939V69.5421H55.2473C55.3433 69.334 55.4892 69.1668 55.6848 69.0405C55.8805 68.9124 56.1331 68.8484 56.4426 68.8484C56.7201 68.8484 56.9629 68.9053 57.171 69.0192C57.3791 69.1312 57.541 69.302 57.6566 69.5314C57.7722 69.7591 57.83 70.0473 57.83 70.3959V73H57.2003V70.4386C57.2003 70.1167 57.1167 69.8659 56.9495 69.6862C56.7823 69.5048 56.5529 69.4141 56.2612 69.4141C56.0602 69.4141 55.8805 69.4576 55.7222 69.5448C55.5657 69.6319 55.442 69.7591 55.3513 69.9263C55.2606 70.0935 55.2153 70.2963 55.2153 70.5347ZM59.5676 71.5059L59.5569 70.7268H59.685L61.478 68.9018H62.2571L60.3467 70.8335H60.2933L59.5676 71.5059ZM58.9806 73V67.5357H59.6103V73H58.9806ZM61.5847 73L59.9838 70.9722L60.4321 70.5347L62.3852 73H61.5847ZM65.266 67.5357H66.0558L67.9128 72.0715H67.9769L69.8339 67.5357H70.6236V73H70.0046V68.8484H69.9513L68.2437 73H67.646L65.9384 68.8484H65.8851V73H65.266V67.5357ZM73.071 73.0961C72.8113 73.0961 72.5756 73.0471 72.3639 72.9493C72.1522 72.8497 71.9841 72.7065 71.8596 72.5197C71.7351 72.3312 71.6729 72.1035 71.6729 71.8367C71.6729 71.6019 71.7191 71.4116 71.8116 71.2657C71.9041 71.1181 72.0277 71.0025 72.1825 70.9189C72.3372 70.8353 72.508 70.773 72.6948 70.7321C72.8833 70.6894 73.0727 70.6556 73.2631 70.6307C73.5121 70.5987 73.714 70.5747 73.8687 70.5587C74.0253 70.5409 74.1391 70.5115 74.2102 70.4706C74.2832 70.4297 74.3196 70.3586 74.3196 70.2572V70.2358C74.3196 69.9726 74.2476 69.768 74.1035 69.6222C73.9612 69.4763 73.7451 69.4034 73.4552 69.4034C73.1546 69.4034 72.9189 69.4692 72.7481 69.6008C72.5774 69.7324 72.4573 69.873 72.3879 70.0224L71.7903 69.8089C71.897 69.5599 72.0393 69.366 72.2172 69.2273C72.3968 69.0868 72.5925 68.9889 72.8041 68.9338C73.0176 68.8769 73.2275 68.8484 73.4338 68.8484C73.5654 68.8484 73.7166 68.8644 73.8874 68.8964C74.0599 68.9267 74.2263 68.9898 74.3863 69.0859C74.5482 69.1819 74.6825 69.3269 74.7892 69.5208C74.896 69.7147 74.9493 69.9744 74.9493 70.2999V73H74.3196V72.445H74.2876C74.2449 72.534 74.1738 72.6291 74.0742 72.7305C73.9746 72.8319 73.842 72.9182 73.6766 72.9893C73.5112 73.0605 73.3093 73.0961 73.071 73.0961ZM73.167 72.5304C73.416 72.5304 73.6259 72.4815 73.7967 72.3837C73.9692 72.2858 74.0991 72.1595 74.1862 72.0048C74.2752 71.85 74.3196 71.6873 74.3196 71.5165V70.9402C74.293 70.9722 74.2343 71.0016 74.1435 71.0283C74.0546 71.0532 73.9514 71.0754 73.834 71.095C73.7184 71.1128 73.6055 71.1288 73.4952 71.143C73.3867 71.1554 73.2986 71.1661 73.231 71.175C73.0674 71.1964 72.9144 71.231 72.7721 71.2791C72.6316 71.3253 72.5178 71.3956 72.4306 71.4898C72.3452 71.5823 72.3025 71.7086 72.3025 71.8687C72.3025 72.0875 72.3835 72.2529 72.5453 72.365C72.709 72.4753 72.9162 72.5304 73.167 72.5304ZM76.7283 70.5347V73H76.0986V68.9018H76.7069V69.5421H76.7603C76.8563 69.334 77.0022 69.1668 77.1979 69.0405C77.3935 68.9124 77.6461 68.8484 77.9556 68.8484C78.2331 68.8484 78.4759 68.9053 78.684 69.0192C78.8921 69.1312 79.054 69.302 79.1696 69.5314C79.2852 69.7591 79.343 70.0473 79.343 70.3959V73H78.7134V70.4386C78.7134 70.1167 78.6298 69.8659 78.4626 69.6862C78.2954 69.5048 78.0659 69.4141 77.7742 69.4141C77.5732 69.4141 77.3935 69.4576 77.2352 69.5448C77.0787 69.6319 76.9551 69.7591 76.8644 69.9263C76.7736 70.0935 76.7283 70.2963 76.7283 70.5347ZM81.6996 73.0961C81.44 73.0961 81.2043 73.0471 80.9926 72.9493C80.7809 72.8497 80.6128 72.7065 80.4883 72.5197C80.3638 72.3312 80.3016 72.1035 80.3016 71.8367C80.3016 71.6019 80.3478 71.4116 80.4403 71.2657C80.5328 71.1181 80.6564 71.0025 80.8112 70.9189C80.9659 70.8353 81.1367 70.773 81.3234 70.7321C81.512 70.6894 81.7014 70.6556 81.8918 70.6307C82.1408 70.5987 82.3427 70.5747 82.4974 70.5587C82.6539 70.5409 82.7678 70.5115 82.8389 70.4706C82.9119 70.4297 82.9483 70.3586 82.9483 70.2572V70.2358C82.9483 69.9726 82.8763 69.768 82.7322 69.6222C82.5899 69.4763 82.3738 69.4034 82.0839 69.4034C81.7833 69.4034 81.5476 69.4692 81.3768 69.6008C81.206 69.7324 81.086 69.873 81.0166 70.0224L80.419 69.8089C80.5257 69.5599 80.668 69.366 80.8459 69.2273C81.0255 69.0868 81.2212 68.9889 81.4328 68.9338C81.6463 68.8769 81.8562 68.8484 82.0625 68.8484C82.1941 68.8484 82.3453 68.8644 82.5161 68.8964C82.6886 68.9267 82.8549 68.9898 83.015 69.0859C83.1769 69.1819 83.3112 69.3269 83.4179 69.5208C83.5246 69.7147 83.578 69.9744 83.578 70.2999V73H82.9483V72.445H82.9163C82.8736 72.534 82.8025 72.6291 82.7029 72.7305C82.6033 72.8319 82.4707 72.9182 82.3053 72.9893C82.1399 73.0605 81.938 73.0961 81.6996 73.0961ZM81.7957 72.5304C82.0447 72.5304 82.2546 72.4815 82.4254 72.3837C82.5979 72.2858 82.7278 72.1595 82.8149 72.0048C82.9039 71.85 82.9483 71.6873 82.9483 71.5165V70.9402C82.9216 70.9722 82.8629 71.0016 82.7722 71.0283C82.6833 71.0532 82.5801 71.0754 82.4627 71.095C82.3471 71.1128 82.2342 71.1288 82.1239 71.143C82.0154 71.1554 81.9273 71.1661 81.8597 71.175C81.6961 71.1964 81.5431 71.231 81.4008 71.2791C81.2603 71.3253 81.1465 71.3956 81.0593 71.4898C80.9739 71.5823 80.9312 71.7086 80.9312 71.8687C80.9312 72.0875 81.0122 72.2529 81.174 72.365C81.3377 72.4753 81.5449 72.5304 81.7957 72.5304ZM86.3815 74.6222C86.0774 74.6222 85.8159 74.5831 85.5971 74.5048C85.3783 74.4283 85.196 74.3269 85.0501 74.2007C84.9061 74.0761 84.7913 73.9427 84.706 73.8004L85.2076 73.4482C85.2645 73.523 85.3365 73.6083 85.4237 73.7044C85.5108 73.8022 85.63 73.8867 85.7812 73.9579C85.9342 74.0308 86.1343 74.0672 86.3815 74.0672C86.7124 74.0672 86.9854 73.9872 87.2006 73.8271C87.4159 73.667 87.5235 73.4162 87.5235 73.0747V72.2423H87.4701C87.4239 72.317 87.3581 72.4095 87.2727 72.5197C87.1891 72.6282 87.0681 72.7252 86.9098 72.8106C86.7533 72.8942 86.5416 72.936 86.2748 72.936C85.944 72.936 85.6469 72.8577 85.3837 72.7012C85.1222 72.5446 84.915 72.317 84.762 72.0181C84.6108 71.7193 84.5352 71.3564 84.5352 70.9295C84.5352 70.5098 84.609 70.1442 84.7566 69.8329C84.9043 69.5199 85.1097 69.278 85.373 69.1072C85.6362 68.9347 85.9404 68.8484 86.2855 68.8484C86.5523 68.8484 86.764 68.8929 86.9205 68.9818C87.0788 69.069 87.1998 69.1686 87.2834 69.2806C87.3687 69.3909 87.4345 69.4816 87.4808 69.5528H87.5448V68.9018H88.1532V73.1174C88.1532 73.4696 88.0731 73.756 87.913 73.9765C87.7547 74.1989 87.5413 74.3616 87.2727 74.4648C87.0059 74.5697 86.7088 74.6222 86.3815 74.6222ZM86.3602 72.3703C86.6128 72.3703 86.8262 72.3125 87.0005 72.1969C87.1748 72.0813 87.3074 71.915 87.3981 71.698C87.4888 71.481 87.5342 71.2213 87.5342 70.9189C87.5342 70.6236 87.4897 70.363 87.4007 70.1371C87.3118 69.9112 87.1802 69.7342 87.0059 69.6062C86.8315 69.4781 86.6163 69.4141 86.3602 69.4141C86.0934 69.4141 85.871 69.4816 85.6932 69.6168C85.5171 69.752 85.3845 69.9334 85.2956 70.1611C85.2084 70.3888 85.1649 70.6414 85.1649 70.9189C85.1649 71.2035 85.2093 71.4552 85.2983 71.6739C85.389 71.891 85.5224 72.0617 85.6985 72.1862C85.8764 72.309 86.0969 72.3703 86.3602 72.3703ZM91.024 73.0854C90.6292 73.0854 90.2885 72.9982 90.0022 72.8239C89.7176 72.6478 89.4979 72.4023 89.3431 72.0875C89.1902 71.7709 89.1137 71.4027 89.1137 70.9829C89.1137 70.5631 89.1902 70.1931 89.3431 69.873C89.4979 69.551 89.7131 69.3002 89.9888 69.1206C90.2663 68.9391 90.59 68.8484 90.96 68.8484C91.1735 68.8484 91.3842 68.884 91.5924 68.9551C91.8005 69.0263 91.9899 69.1419 92.1607 69.302C92.3314 69.4603 92.4675 69.6702 92.5689 69.9317C92.6703 70.1931 92.721 70.5151 92.721 70.8975V71.1643H89.5619V70.62H92.0806C92.0806 70.3888 92.0344 70.1825 91.9419 70.001C91.8512 69.8196 91.7213 69.6764 91.5523 69.5715C91.3851 69.4665 91.1877 69.4141 90.96 69.4141C90.7092 69.4141 90.4922 69.4763 90.309 69.6008C90.1276 69.7236 89.9879 69.8836 89.8901 70.0811C89.7923 70.2785 89.7434 70.4902 89.7434 70.7161V71.079C89.7434 71.3885 89.7967 71.6508 89.9034 71.8661C90.0119 72.0795 90.1622 72.2423 90.3544 72.3543C90.5465 72.4646 90.7697 72.5197 91.024 72.5197C91.1895 72.5197 91.3389 72.4966 91.4723 72.4504C91.6075 72.4023 91.724 72.3312 91.8218 72.2369C91.9196 72.1409 91.9952 72.0217 92.0486 71.8794L92.6569 72.0502C92.5929 72.2565 92.4853 72.4379 92.3341 72.5944C92.1829 72.7492 91.9961 72.8702 91.7738 72.9573C91.5514 73.0427 91.3015 73.0854 91.024 73.0854ZM93.6788 73V68.9018H94.2872V69.5208H94.3298C94.4046 69.318 94.5397 69.1535 94.7354 69.0272C94.9311 68.9009 95.1516 68.8377 95.3971 68.8377C95.4433 68.8377 95.5011 68.8386 95.5705 68.8404C95.6399 68.8422 95.6924 68.8449 95.7279 68.8484V69.4888C95.7066 69.4834 95.6577 69.4754 95.5812 69.4647C95.5065 69.4523 95.4273 69.4461 95.3437 69.4461C95.1445 69.4461 94.9666 69.4879 94.8101 69.5715C94.6554 69.6533 94.5326 69.7671 94.4419 69.913C94.353 70.0571 94.3085 70.2216 94.3085 70.4066V73H93.6788Z" fill="black"/>
<path d="M54.6617 83V77.5357H56.5721C56.9527 77.5357 57.2667 77.6015 57.5139 77.7331C57.7612 77.863 57.9453 78.0382 58.0662 78.2588C58.1872 78.4775 58.2476 78.7203 58.2476 78.9872C58.2476 79.2219 58.2058 79.4158 58.1222 79.5688C58.0404 79.7218 57.9319 79.8427 57.7967 79.9317C57.6633 80.0206 57.5184 80.0864 57.3618 80.1291V80.1825C57.529 80.1931 57.6971 80.2518 57.8661 80.3586C58.0351 80.4653 58.1765 80.6183 58.2903 80.8175C58.4042 81.0167 58.4611 81.2604 58.4611 81.5485C58.4611 81.8225 58.3988 82.0688 58.2743 82.2876C58.1498 82.5064 57.9533 82.6798 57.6847 82.8079C57.4161 82.936 57.0666 83 56.6361 83H54.6617ZM55.3234 82.413H56.6361C57.0683 82.413 57.3752 82.3294 57.5566 82.1622C57.7398 81.9932 57.8314 81.7887 57.8314 81.5485C57.8314 81.3636 57.7843 81.1928 57.69 81.0363C57.5957 80.878 57.4614 80.7517 57.2871 80.6574C57.1128 80.5613 56.9065 80.5133 56.6681 80.5133H55.3234V82.413ZM55.3234 79.937H56.5507C56.7499 79.937 56.9296 79.8979 57.0897 79.8196C57.2515 79.7413 57.3796 79.6311 57.4739 79.4888C57.5699 79.3465 57.618 79.1793 57.618 78.9872C57.618 78.747 57.5344 78.5434 57.3672 78.3762C57.2 78.2072 56.9349 78.1227 56.5721 78.1227H55.3234V79.937ZM60.669 83.0961C60.4093 83.0961 60.1736 83.0471 59.9619 82.9493C59.7502 82.8497 59.5821 82.7065 59.4576 82.5197C59.3331 82.3312 59.2709 82.1035 59.2709 81.8367C59.2709 81.6019 59.3171 81.4116 59.4096 81.2657C59.5021 81.1181 59.6257 81.0025 59.7805 80.9189C59.9352 80.8353 60.106 80.773 60.2928 80.7321C60.4813 80.6894 60.6707 80.6556 60.8611 80.6307C61.1101 80.5987 61.312 80.5747 61.4667 80.5587C61.6233 80.5409 61.7371 80.5115 61.8082 80.4706C61.8812 80.4297 61.9176 80.3586 61.9176 80.2572V80.2358C61.9176 79.9726 61.8456 79.768 61.7015 79.6222C61.5592 79.4763 61.3431 79.4034 61.0532 79.4034C60.7526 79.4034 60.5169 79.4692 60.3461 79.6008C60.1754 79.7324 60.0553 79.873 59.9859 80.0224L59.3883 79.8089C59.495 79.5599 59.6373 79.366 59.8152 79.2273C59.9948 79.0868 60.1905 78.9889 60.4021 78.9338C60.6156 78.8769 60.8255 78.8484 61.0318 78.8484C61.1634 78.8484 61.3146 78.8644 61.4854 78.8964C61.6579 78.9267 61.8243 78.9898 61.9843 79.0859C62.1462 79.1819 62.2805 79.3269 62.3872 79.5208C62.4939 79.7147 62.5473 79.9744 62.5473 80.2999V83H61.9176V82.445H61.8856C61.8429 82.534 61.7718 82.6291 61.6722 82.7305C61.5726 82.8319 61.44 82.9182 61.2746 82.9893C61.1092 83.0605 60.9073 83.0961 60.669 83.0961ZM60.765 82.5304C61.014 82.5304 61.2239 82.4815 61.3947 82.3837C61.5672 82.2858 61.6971 82.1595 61.7842 82.0048C61.8732 81.85 61.9176 81.6873 61.9176 81.5165V80.9402C61.891 80.9722 61.8323 81.0016 61.7415 81.0283C61.6526 81.0532 61.5494 81.0754 61.432 81.095C61.3164 81.1128 61.2035 81.1288 61.0932 81.143C60.9847 81.1554 60.8966 81.1661 60.829 81.175C60.6654 81.1964 60.5124 81.231 60.3701 81.2791C60.2296 81.3253 60.1158 81.3956 60.0286 81.4898C59.9432 81.5823 59.9005 81.7086 59.9005 81.8687C59.9005 82.0875 59.9815 82.2529 60.1433 82.365C60.307 82.4753 60.5142 82.5304 60.765 82.5304ZM66.5995 79.8196L66.0339 79.9797C65.9983 79.8854 65.9458 79.7938 65.8765 79.7049C65.8089 79.6142 65.7164 79.5395 65.599 79.4808C65.4816 79.4221 65.3313 79.3927 65.1481 79.3927C64.8973 79.3927 64.6883 79.4505 64.5211 79.5661C64.3556 79.68 64.2729 79.8249 64.2729 80.001C64.2729 80.1576 64.3298 80.2812 64.4437 80.3719C64.5575 80.4626 64.7354 80.5382 64.9773 80.5987L65.5856 80.7481C65.9521 80.837 66.2251 80.9731 66.4047 81.1563C66.5844 81.3378 66.6742 81.5717 66.6742 81.858C66.6742 82.0928 66.6066 82.3027 66.4714 82.4877C66.338 82.6727 66.1513 82.8186 65.9111 82.9253C65.671 83.032 65.3917 83.0854 65.0734 83.0854C64.6553 83.0854 64.3094 82.9947 64.0355 82.8132C63.7615 82.6318 63.5881 82.3668 63.5152 82.0181L64.1128 81.8687C64.1698 82.0893 64.2774 82.2547 64.4357 82.365C64.5958 82.4753 64.8048 82.5304 65.0627 82.5304C65.3562 82.5304 65.5892 82.4682 65.7617 82.3436C65.936 82.2174 66.0232 82.0662 66.0232 81.8901C66.0232 81.7478 65.9734 81.6286 65.8738 81.5325C65.7742 81.4347 65.6212 81.3618 65.4149 81.3138L64.7318 81.1537C64.3565 81.0647 64.0808 80.9269 63.9047 80.7401C63.7304 80.5516 63.6432 80.3159 63.6432 80.0331C63.6432 79.8018 63.7082 79.5973 63.838 79.4194C63.9696 79.2415 64.1484 79.1019 64.3743 79.0005C64.602 78.8991 64.8599 78.8484 65.1481 78.8484C65.5536 78.8484 65.872 78.9373 66.1032 79.1152C66.3363 79.2931 66.5017 79.5279 66.5995 79.8196ZM69.3403 83.0854C68.9455 83.0854 68.6048 82.9982 68.3184 82.8239C68.0338 82.6478 67.8142 82.4023 67.6594 82.0875C67.5065 81.7709 67.43 81.4027 67.43 80.9829C67.43 80.5631 67.5065 80.1931 67.6594 79.873C67.8142 79.551 68.0294 79.3002 68.3051 79.1206C68.5826 78.9391 68.9063 78.8484 69.2763 78.8484C69.4898 78.8484 69.7005 78.884 69.9086 78.9551C70.1168 79.0263 70.3062 79.1419 70.477 79.302C70.6477 79.4603 70.7838 79.6702 70.8852 79.9317C70.9866 80.1931 71.0373 80.5151 71.0373 80.8975V81.1643H67.8782V80.62H70.3969C70.3969 80.3888 70.3507 80.1825 70.2582 80.001C70.1675 79.8196 70.0376 79.6764 69.8686 79.5715C69.7014 79.4665 69.504 79.4141 69.2763 79.4141C69.0255 79.4141 68.8085 79.4763 68.6253 79.6008C68.4439 79.7236 68.3042 79.8836 68.2064 80.0811C68.1086 80.2785 68.0596 80.4902 68.0596 80.7161V81.079C68.0596 81.3885 68.113 81.6508 68.2197 81.8661C68.3282 82.0795 68.4785 82.2423 68.6706 82.3543C68.8627 82.4646 69.086 82.5197 69.3403 82.5197C69.5058 82.5197 69.6552 82.4966 69.7886 82.4504C69.9238 82.4023 70.0403 82.3312 70.1381 82.2369C70.2359 82.1409 70.3115 82.0217 70.3649 81.8794L70.9732 82.0502C70.9092 82.2565 70.8016 82.4379 70.6504 82.5944C70.4992 82.7492 70.3124 82.8702 70.0901 82.9573C69.8677 83.0427 69.6178 83.0854 69.3403 83.0854ZM72.0805 83V77.5357H72.7102V79.5528H72.7635C72.8098 79.4816 72.8738 79.3909 72.9556 79.2806C73.0392 79.1686 73.1584 79.069 73.3132 78.9818C73.4697 78.8929 73.6814 78.8484 73.9482 78.8484C74.2933 78.8484 74.5974 78.9347 74.8607 79.1072C75.1239 79.2798 75.3294 79.5243 75.477 79.8409C75.6246 80.1576 75.6985 80.5311 75.6985 80.9616C75.6985 81.3956 75.6246 81.7718 75.477 82.0902C75.3294 82.4068 75.1248 82.6523 74.8633 82.8266C74.6019 82.9991 74.3004 83.0854 73.9588 83.0854C73.6956 83.0854 73.4848 83.0418 73.3265 82.9546C73.1682 82.8657 73.0464 82.7652 72.961 82.6531C72.8756 82.5393 72.8098 82.445 72.7635 82.3703H72.6888V83H72.0805ZM72.6995 80.9509C72.6995 81.2604 72.7449 81.5334 72.8356 81.77C72.9263 82.0048 73.0588 82.1889 73.2331 82.3223C73.4074 82.4539 73.6209 82.5197 73.8735 82.5197C74.1367 82.5197 74.3564 82.4504 74.5325 82.3116C74.7104 82.1711 74.8438 81.9826 74.9327 81.746C75.0234 81.5076 75.0688 81.2426 75.0688 80.9509C75.0688 80.6627 75.0243 80.403 74.9354 80.1718C74.8482 79.9388 74.7157 79.7547 74.5378 79.6195C74.3617 79.4825 74.1403 79.4141 73.8735 79.4141C73.6173 79.4141 73.4021 79.479 73.2278 79.6088C73.0535 79.7369 72.9218 79.9165 72.8329 80.1478C72.744 80.3772 72.6995 80.6449 72.6995 80.9509ZM77.8676 83.0961C77.6079 83.0961 77.3723 83.0471 77.1606 82.9493C76.9489 82.8497 76.7808 82.7065 76.6563 82.5197C76.5318 82.3312 76.4695 82.1035 76.4695 81.8367C76.4695 81.6019 76.5158 81.4116 76.6083 81.2657C76.7008 81.1181 76.8244 81.0025 76.9792 80.9189C77.1339 80.8353 77.3047 80.773 77.4914 80.7321C77.68 80.6894 77.8694 80.6556 78.0597 80.6307C78.3088 80.5987 78.5107 80.5747 78.6654 80.5587C78.8219 80.5409 78.9358 80.5115 79.0069 80.4706C79.0799 80.4297 79.1163 80.3586 79.1163 80.2572V80.2358C79.1163 79.9726 79.0443 79.768 78.9002 79.6222C78.7579 79.4763 78.5418 79.4034 78.2518 79.4034C77.9512 79.4034 77.7156 79.4692 77.5448 79.6008C77.374 79.7324 77.254 79.873 77.1846 80.0224L76.5869 79.8089C76.6937 79.5599 76.836 79.366 77.0138 79.2273C77.1935 79.0868 77.3892 78.9889 77.6008 78.9338C77.8143 78.8769 78.0242 78.8484 78.2305 78.8484C78.3621 78.8484 78.5133 78.8644 78.6841 78.8964C78.8566 78.9267 79.0229 78.9898 79.183 79.0859C79.3449 79.1819 79.4792 79.3269 79.5859 79.5208C79.6926 79.7147 79.746 79.9744 79.746 80.2999V83H79.1163V82.445H79.0843C79.0416 82.534 78.9705 82.6291 78.8709 82.7305C78.7712 82.8319 78.6387 82.9182 78.4733 82.9893C78.3079 83.0605 78.106 83.0961 77.8676 83.0961ZM77.9637 82.5304C78.2127 82.5304 78.4226 82.4815 78.5934 82.3837C78.7659 82.2858 78.8958 82.1595 78.9829 82.0048C79.0718 81.85 79.1163 81.6873 79.1163 81.5165V80.9402C79.0896 80.9722 79.0309 81.0016 78.9402 81.0283C78.8513 81.0532 78.7481 81.0754 78.6307 81.095C78.5151 81.1128 78.4022 81.1288 78.2919 81.143C78.1834 81.1554 78.0953 81.1661 78.0277 81.175C77.8641 81.1964 77.7111 81.231 77.5688 81.2791C77.4283 81.3253 77.3144 81.3956 77.2273 81.4898C77.1419 81.5823 77.0992 81.7086 77.0992 81.8687C77.0992 82.0875 77.1802 82.2529 77.342 82.365C77.5057 82.4753 77.7129 82.5304 77.9637 82.5304ZM81.525 80.5347V83H80.8953V78.9018H81.5036V79.5421H81.557C81.653 79.334 81.7989 79.1668 81.9945 79.0405C82.1902 78.9124 82.4428 78.8484 82.7523 78.8484C83.0298 78.8484 83.2726 78.9053 83.4807 79.0192C83.6888 79.1312 83.8507 79.302 83.9663 79.5314C84.0819 79.7591 84.1397 80.0473 84.1397 80.3959V83H83.51V80.4386C83.51 80.1167 83.4264 79.8659 83.2592 79.6862C83.092 79.5048 82.8626 79.4141 82.5709 79.4141C82.3699 79.4141 82.1902 79.4576 82.0319 79.5448C81.8754 79.6319 81.7518 79.7591 81.661 79.9263C81.5703 80.0935 81.525 80.2963 81.525 80.5347ZM86.8378 83.0854C86.4963 83.0854 86.1948 82.9991 85.9334 82.8266C85.6719 82.6523 85.4673 82.4068 85.3197 82.0902C85.1721 81.7718 85.0982 81.3956 85.0982 80.9616C85.0982 80.5311 85.1721 80.1576 85.3197 79.8409C85.4673 79.5243 85.6728 79.2798 85.936 79.1072C86.1993 78.9347 86.5034 78.8484 86.8485 78.8484C87.1153 78.8484 87.3261 78.8929 87.4809 78.9818C87.6374 79.069 87.7566 79.1686 87.8384 79.2806C87.922 79.3909 87.9869 79.4816 88.0332 79.5528H88.0865V77.5357H88.7162V83H88.1079V82.3703H88.0332C87.9869 82.445 87.9211 82.5393 87.8357 82.6531C87.7503 82.7652 87.6285 82.8657 87.4702 82.9546C87.3119 83.0418 87.1011 83.0854 86.8378 83.0854ZM86.9232 82.5197C87.1758 82.5197 87.3893 82.4539 87.5636 82.3223C87.7379 82.1889 87.8704 82.0048 87.9611 81.77C88.0518 81.5334 88.0972 81.2604 88.0972 80.9509C88.0972 80.6449 88.0527 80.3772 87.9638 80.1478C87.8749 79.9165 87.7432 79.7369 87.5689 79.6088C87.3946 79.479 87.1794 79.4141 86.9232 79.4141C86.6564 79.4141 86.4341 79.4825 86.2562 79.6195C86.0801 79.7547 85.9476 79.9388 85.8586 80.1718C85.7715 80.403 85.7279 80.6627 85.7279 80.9509C85.7279 81.2426 85.7724 81.5076 85.8613 81.746C85.952 81.9826 86.0854 82.1711 86.2615 82.3116C86.4394 82.4504 86.66 82.5197 86.9232 82.5197Z" fill="black"/>
<path d="M67.6617 93V87.5357H69.508C69.9349 87.5357 70.2853 87.6086 70.5593 87.7545C70.8332 87.8986 71.036 88.0969 71.1676 88.3495C71.2992 88.6021 71.365 88.8893 71.365 89.2113C71.365 89.5332 71.2992 89.8187 71.1676 90.0677C71.036 90.3168 70.8341 90.5124 70.5619 90.6547C70.2898 90.7952 69.942 90.8655 69.5187 90.8655H68.0246V90.2678H69.4974C69.7891 90.2678 70.0239 90.2252 70.2017 90.1398C70.3814 90.0544 70.5112 89.9334 70.5913 89.7769C70.6731 89.6186 70.714 89.4301 70.714 89.2113C70.714 88.9925 70.6731 88.8013 70.5913 88.6376C70.5095 88.474 70.3787 88.3477 70.1991 88.2588C70.0194 88.168 69.782 88.1227 69.4867 88.1227H68.3234V93H67.6617ZM70.2338 90.5453L71.5785 93H70.8101L69.4867 90.5453H70.2338ZM72.4676 93V87.5357H75.7441V88.1227H73.1293V89.969H75.4986V90.556H73.1293V93H72.4676Z" fill="black"/>
</svg>
