<svg width="190" height="121" viewBox="0 0 190 121" fill="none" xmlns="http://www.w3.org/2000/svg">
<rect width="190" height="121" fill="white"/>
<rect x="61.5" y="20.5" width="67" height="80" fill="#D9D9D9" stroke="black"/>
<line x1="61" y1="35.5" x2="129" y2="35.5" stroke="black"/>
<line x1="61" y1="51.5" x2="129" y2="51.5" stroke="black"/>
<line x1="61" y1="67.5" x2="129" y2="67.5" stroke="black"/>
<line x1="61" y1="83.5" x2="129" y2="83.5" stroke="black"/>
<path d="M78.8858 31H78.1921L80.1985 25.5357H80.8816L82.888 31H82.1943L80.5614 26.4002H80.5187L78.8858 31ZM79.142 28.8655H81.9381V29.4525H79.142V28.8655ZM83.6537 32.5368V26.9018H84.2621V27.5528H84.3368C84.383 27.4816 84.4471 27.3909 84.5289 27.2806C84.6125 27.1686 84.7317 27.069 84.8864 26.9818C85.0429 26.8929 85.2546 26.8484 85.5214 26.8484C85.8665 26.8484 86.1707 26.9347 86.4339 27.1072C86.6972 27.2798 86.9026 27.5243 87.0503 27.8409C87.1979 28.1576 87.2717 28.5311 87.2717 28.9616C87.2717 29.3956 87.1979 29.7718 87.0503 30.0902C86.9026 30.4068 86.6981 30.6523 86.4366 30.8266C86.1751 30.9991 85.8736 31.0854 85.5321 31.0854C85.2688 31.0854 85.0581 31.0418 84.8997 30.9546C84.7414 30.8657 84.6196 30.7652 84.5342 30.6531C84.4488 30.5393 84.383 30.445 84.3368 30.3703H84.2834V32.5368H83.6537ZM84.2727 28.9509C84.2727 29.2604 84.3181 29.5334 84.4088 29.77C84.4995 30.0048 84.632 30.1889 84.8064 30.3223C84.9807 30.4539 85.1941 30.5197 85.4467 30.5197C85.71 30.5197 85.9296 30.4504 86.1057 30.3116C86.2836 30.1711 86.417 29.9826 86.506 29.746C86.5967 29.5076 86.642 29.2426 86.642 28.9509C86.642 28.6627 86.5976 28.403 86.5086 28.1718C86.4215 27.9388 86.2889 27.7547 86.1111 27.6195C85.935 27.4825 85.7135 27.4141 85.4467 27.4141C85.1906 27.4141 84.9753 27.479 84.801 27.6088C84.6267 27.7369 84.4951 27.9165 84.4061 28.1478C84.3172 28.3772 84.2727 28.6449 84.2727 28.9509ZM88.8619 25.5357V31H88.2322V25.5357H88.8619ZM90.0152 31V26.9018H90.6449V31H90.0152ZM90.3354 26.2187C90.2126 26.2187 90.1068 26.1769 90.0179 26.0933C89.9307 26.0097 89.8871 25.9092 89.8871 25.7918C89.8871 25.6744 89.9307 25.5739 90.0179 25.4903C90.1068 25.4067 90.2126 25.3649 90.3354 25.3649C90.4581 25.3649 90.563 25.4067 90.6502 25.4903C90.7391 25.5739 90.7836 25.6744 90.7836 25.7918C90.7836 25.9092 90.7391 26.0097 90.6502 26.0933C90.563 26.1769 90.4581 26.2187 90.3354 26.2187ZM93.4631 31.0854C93.0789 31.0854 92.748 30.9947 92.4705 30.8132C92.193 30.6318 91.9796 30.3819 91.8302 30.0635C91.6808 29.7451 91.6061 29.3813 91.6061 28.9722C91.6061 28.556 91.6825 28.1887 91.8355 27.8703C91.9903 27.5501 92.2055 27.3002 92.4812 27.1206C92.7587 26.9391 93.0824 26.8484 93.4524 26.8484C93.7406 26.8484 94.0003 26.9018 94.2315 27.0085C94.4627 27.1152 94.6522 27.2646 94.7998 27.4567C94.9474 27.6488 95.039 27.873 95.0746 28.1291H94.4449C94.3969 27.9423 94.2902 27.7769 94.1248 27.6328C93.9611 27.487 93.7406 27.4141 93.4631 27.4141C93.2176 27.4141 93.0024 27.4781 92.8174 27.6062C92.6342 27.7324 92.491 27.9112 92.3878 28.1424C92.2864 28.3719 92.2357 28.6414 92.2357 28.9509C92.2357 29.2675 92.2855 29.5432 92.3852 29.778C92.4865 30.0128 92.6288 30.1951 92.812 30.325C92.997 30.4548 93.214 30.5197 93.4631 30.5197C93.6267 30.5197 93.7752 30.4913 93.9086 30.4344C94.0421 30.3774 94.155 30.2956 94.2475 30.1889C94.34 30.0822 94.4058 29.9541 94.4449 29.8047H95.0746C95.039 30.0466 94.951 30.2645 94.8105 30.4584C94.6717 30.6505 94.4876 30.8034 94.2582 30.9173C94.0305 31.0293 93.7655 31.0854 93.4631 31.0854ZM97.2011 31.0961C96.9414 31.0961 96.7057 31.0471 96.4941 30.9493C96.2824 30.8497 96.1143 30.7065 95.9898 30.5197C95.8653 30.3312 95.803 30.1035 95.803 29.8367C95.803 29.6019 95.8493 29.4116 95.9418 29.2657C96.0342 29.1181 96.1579 29.0025 96.3126 28.9189C96.4674 28.8353 96.6381 28.773 96.8249 28.7321C97.0134 28.6894 97.2029 28.6556 97.3932 28.6307C97.6422 28.5987 97.8441 28.5747 97.9989 28.5587C98.1554 28.5409 98.2692 28.5115 98.3404 28.4706C98.4133 28.4297 98.4498 28.3586 98.4498 28.2572V28.2358C98.4498 27.9726 98.3777 27.768 98.2337 27.6222C98.0914 27.4763 97.8752 27.4034 97.5853 27.4034C97.2847 27.4034 97.049 27.4692 96.8783 27.6008C96.7075 27.7324 96.5874 27.873 96.5181 28.0224L95.9204 27.8089C96.0271 27.5599 96.1694 27.366 96.3473 27.2273C96.527 27.0868 96.7226 26.9889 96.9343 26.9338C97.1477 26.8769 97.3576 26.8484 97.564 26.8484C97.6956 26.8484 97.8468 26.8644 98.0175 26.8964C98.1901 26.9267 98.3564 26.9898 98.5165 27.0859C98.6783 27.1819 98.8126 27.3269 98.9194 27.5208C99.0261 27.7147 99.0795 27.9744 99.0795 28.2999V31H98.4498V30.445H98.4178C98.3751 30.534 98.3039 30.6291 98.2043 30.7305C98.1047 30.8319 97.9722 30.9182 97.8068 30.9893C97.6413 31.0605 97.4395 31.0961 97.2011 31.0961ZM97.2972 30.5304C97.5462 30.5304 97.7561 30.4815 97.9268 30.3837C98.0994 30.2858 98.2292 30.1595 98.3164 30.0048C98.4053 29.85 98.4498 29.6873 98.4498 29.5165V28.9402C98.4231 28.9722 98.3644 29.0016 98.2737 29.0283C98.1847 29.0532 98.0816 29.0754 97.9642 29.095C97.8486 29.1128 97.7356 29.1288 97.6253 29.143C97.5168 29.1554 97.4288 29.1661 97.3612 29.175C97.1975 29.1964 97.0446 29.231 96.9023 29.2791C96.7618 29.3253 96.6479 29.3956 96.5608 29.4898C96.4754 29.5823 96.4327 29.7086 96.4327 29.8687C96.4327 30.0875 96.5136 30.2529 96.6755 30.365C96.8391 30.4753 97.0464 30.5304 97.2972 30.5304ZM101.894 31.0854C101.509 31.0854 101.179 30.9947 100.901 30.8132C100.624 30.6318 100.41 30.3819 100.261 30.0635C100.111 29.7451 100.037 29.3813 100.037 28.9722C100.037 28.556 100.113 28.1887 100.266 27.8703C100.421 27.5501 100.636 27.3002 100.912 27.1206C101.189 26.9391 101.513 26.8484 101.883 26.8484C102.171 26.8484 102.431 26.9018 102.662 27.0085C102.893 27.1152 103.083 27.2646 103.23 27.4567C103.378 27.6488 103.47 27.873 103.505 28.1291H102.876C102.827 27.9423 102.721 27.7769 102.555 27.6328C102.392 27.487 102.171 27.4141 101.894 27.4141C101.648 27.4141 101.433 27.4781 101.248 27.6062C101.065 27.7324 100.922 27.9112 100.818 28.1424C100.717 28.3719 100.666 28.6414 100.666 28.9509C100.666 29.2675 100.716 29.5432 100.816 29.778C100.917 30.0128 101.059 30.1951 101.243 30.325C101.428 30.4548 101.645 30.5197 101.894 30.5197C102.057 30.5197 102.206 30.4913 102.339 30.4344C102.473 30.3774 102.586 30.2956 102.678 30.1889C102.771 30.0822 102.836 29.9541 102.876 29.8047H103.505C103.47 30.0466 103.382 30.2645 103.241 30.4584C103.102 30.6505 102.918 30.8034 102.689 30.9173C102.461 31.0293 102.196 31.0854 101.894 31.0854ZM101.595 30.9787H102.118L102.075 31.1921C102.214 31.2134 102.341 31.2713 102.457 31.3655C102.572 31.4616 102.63 31.6137 102.63 31.8218C102.63 32.0512 102.535 32.238 102.345 32.3821C102.156 32.5279 101.878 32.6009 101.509 32.6009L101.488 32.1846C101.654 32.1846 101.79 32.158 101.899 32.1046C102.009 32.053 102.064 31.9659 102.064 31.8431C102.064 31.7204 102.019 31.6368 101.928 31.5923C101.838 31.5479 101.691 31.5176 101.488 31.5016L101.595 30.9787ZM105.632 31.0961C105.372 31.0961 105.136 31.0471 104.925 30.9493C104.713 30.8497 104.545 30.7065 104.42 30.5197C104.296 30.3312 104.234 30.1035 104.234 29.8367C104.234 29.6019 104.28 29.4116 104.372 29.2657C104.465 29.1181 104.588 29.0025 104.743 28.9189C104.898 28.8353 105.069 28.773 105.255 28.7321C105.444 28.6894 105.633 28.6556 105.824 28.6307C106.073 28.5987 106.275 28.5747 106.429 28.5587C106.586 28.5409 106.7 28.5115 106.771 28.4706C106.844 28.4297 106.88 28.3586 106.88 28.2572V28.2358C106.88 27.9726 106.808 27.768 106.664 27.6222C106.522 27.4763 106.306 27.4034 106.016 27.4034C105.715 27.4034 105.48 27.4692 105.309 27.6008C105.138 27.7324 105.018 27.873 104.949 28.0224L104.351 27.8089C104.458 27.5599 104.6 27.366 104.778 27.2273C104.958 27.0868 105.153 26.9889 105.365 26.9338C105.578 26.8769 105.788 26.8484 105.995 26.8484C106.126 26.8484 106.277 26.8644 106.448 26.8964C106.621 26.9267 106.787 26.9898 106.947 27.0859C107.109 27.1819 107.243 27.3269 107.35 27.5208C107.457 27.7147 107.51 27.9744 107.51 28.2999V31H106.88V30.445H106.848C106.806 30.534 106.735 30.6291 106.635 30.7305C106.535 30.8319 106.403 30.9182 106.237 30.9893C106.072 31.0605 105.87 31.0961 105.632 31.0961ZM105.728 30.5304C105.977 30.5304 106.187 30.4815 106.357 30.3837C106.53 30.2858 106.66 30.1595 106.747 30.0048C106.836 29.85 106.88 29.6873 106.88 29.5165V28.9402C106.854 28.9722 106.795 29.0016 106.704 29.0283C106.615 29.0532 106.512 29.0754 106.395 29.095C106.279 29.1128 106.166 29.1288 106.056 29.143C105.947 29.1554 105.859 29.1661 105.792 29.175C105.628 29.1964 105.475 29.231 105.333 29.2791C105.192 29.3253 105.078 29.3956 104.991 29.4898C104.906 29.5823 104.863 29.7086 104.863 29.8687C104.863 30.0875 104.944 30.2529 105.106 30.365C105.27 30.4753 105.477 30.5304 105.728 30.5304ZM105.215 26.4108L104.725 26.3895C104.725 26.1173 104.802 25.895 104.957 25.7225C105.113 25.5481 105.306 25.461 105.536 25.461C105.637 25.461 105.727 25.4788 105.805 25.5144C105.883 25.5481 105.958 25.5873 106.029 25.6317C106.1 25.6762 106.173 25.7162 106.248 25.7518C106.325 25.7856 106.411 25.8025 106.507 25.8025C106.608 25.8025 106.694 25.7634 106.763 25.6851C106.834 25.6051 106.87 25.509 106.87 25.397L107.35 25.4396C107.35 25.7171 107.272 25.9377 107.115 26.1013C106.96 26.265 106.768 26.3468 106.539 26.3468C106.416 26.3468 106.315 26.3299 106.235 26.2961C106.155 26.2605 106.083 26.2205 106.021 26.176C105.959 26.1316 105.893 26.0924 105.824 26.0586C105.754 26.0231 105.669 26.0053 105.568 26.0053C105.466 26.0053 105.382 26.0453 105.314 26.1254C105.248 26.2036 105.215 26.2988 105.215 26.4108ZM110.324 31.0854C109.954 31.0854 109.63 30.9973 109.35 30.8212C109.073 30.6451 108.856 30.3988 108.699 30.0822C108.545 29.7656 108.467 29.3956 108.467 28.9722C108.467 28.5453 108.545 28.1727 108.699 27.8543C108.856 27.5359 109.073 27.2886 109.35 27.1126C109.63 26.9365 109.954 26.8484 110.324 26.8484C110.694 26.8484 111.018 26.9365 111.295 27.1126C111.575 27.2886 111.792 27.5359 111.946 27.8543C112.103 28.1727 112.181 28.5453 112.181 28.9722C112.181 29.3956 112.103 29.7656 111.946 30.0822C111.792 30.3988 111.575 30.6451 111.295 30.8212C111.018 30.9973 110.694 31.0854 110.324 31.0854ZM110.324 30.5197C110.605 30.5197 110.837 30.4477 111.018 30.3036C111.199 30.1595 111.334 29.9701 111.421 29.7353C111.508 29.5005 111.552 29.2462 111.552 28.9722C111.552 28.6983 111.508 28.4431 111.421 28.2065C111.334 27.9699 111.199 27.7787 111.018 27.6328C110.837 27.487 110.605 27.4141 110.324 27.4141C110.043 27.4141 109.812 27.487 109.631 27.6328C109.449 27.7787 109.315 27.9699 109.228 28.2065C109.14 28.4431 109.097 28.6983 109.097 28.9722C109.097 29.2462 109.14 29.5005 109.228 29.7353C109.315 29.9701 109.449 30.1595 109.631 30.3036C109.812 30.4477 110.043 30.5197 110.324 30.5197Z" fill="black"/>
<path d="M76.3629 42.1227V41.5357H80.4611V42.1227H78.7428V47H78.0811V42.1227H76.3629ZM80.9714 47V42.9018H81.5797V43.5208H81.6224C81.6971 43.318 81.8323 43.1535 82.0279 43.0272C82.2236 42.9009 82.4442 42.8377 82.6896 42.8377C82.7359 42.8377 82.7937 42.8386 82.8631 42.8404C82.9324 42.8422 82.9849 42.8449 83.0205 42.8484V43.4888C82.9991 43.4834 82.9502 43.4754 82.8737 43.4647C82.799 43.4523 82.7199 43.4461 82.6363 43.4461C82.4371 43.4461 82.2592 43.4879 82.1027 43.5715C81.9479 43.6533 81.8252 43.7671 81.7344 43.913C81.6455 44.0571 81.601 44.2216 81.601 44.4066V47H80.9714ZM84.9729 47.0961C84.7132 47.0961 84.4775 47.0471 84.2658 46.9493C84.0542 46.8497 83.8861 46.7065 83.7616 46.5197C83.637 46.3312 83.5748 46.1035 83.5748 45.8367C83.5748 45.6019 83.621 45.4116 83.7135 45.2657C83.806 45.1181 83.9296 45.0025 84.0844 44.9189C84.2391 44.8353 84.4099 44.773 84.5967 44.7321C84.7852 44.6894 84.9747 44.6556 85.165 44.6307C85.414 44.5987 85.6159 44.5747 85.7706 44.5587C85.9272 44.5409 86.041 44.5115 86.1122 44.4706C86.1851 44.4297 86.2216 44.3586 86.2216 44.2572V44.2358C86.2216 43.9726 86.1495 43.768 86.0054 43.6222C85.8631 43.4763 85.647 43.4034 85.3571 43.4034C85.0565 43.4034 84.8208 43.4692 84.65 43.6008C84.4793 43.7324 84.3592 43.873 84.2898 44.0224L83.6922 43.8089C83.7989 43.5599 83.9412 43.366 84.1191 43.2273C84.2987 43.0868 84.4944 42.9889 84.7061 42.9338C84.9195 42.8769 85.1294 42.8484 85.3357 42.8484C85.4674 42.8484 85.6186 42.8644 85.7893 42.8964C85.9619 42.9267 86.1282 42.9898 86.2883 43.0859C86.4501 43.1819 86.5844 43.3269 86.6911 43.5208C86.7979 43.7147 86.8512 43.9744 86.8512 44.2999V47H86.2216V46.445H86.1895C86.1468 46.534 86.0757 46.6291 85.9761 46.7305C85.8765 46.8319 85.744 46.9182 85.5785 46.9893C85.4131 47.0605 85.2112 47.0961 84.9729 47.0961ZM85.0689 46.5304C85.318 46.5304 85.5278 46.4815 85.6986 46.3837C85.8711 46.2858 86.001 46.1595 86.0881 46.0048C86.1771 45.85 86.2216 45.6873 86.2216 45.5165V44.9402C86.1949 44.9722 86.1362 45.0016 86.0455 45.0283C85.9565 45.0532 85.8534 45.0754 85.736 45.095C85.6203 45.1128 85.5074 45.1288 85.3971 45.143C85.2886 45.1554 85.2006 45.1661 85.133 45.175C84.9693 45.1964 84.8163 45.231 84.674 45.2791C84.5335 45.3253 84.4197 45.3956 84.3325 45.4898C84.2471 45.5823 84.2045 45.7086 84.2045 45.8687C84.2045 46.0875 84.2854 46.2529 84.4473 46.365C84.6109 46.4753 84.8181 46.5304 85.0689 46.5304ZM88.6302 44.5347V47H88.0005V42.9018H88.6089V43.5421H88.6622C88.7583 43.334 88.9041 43.1668 89.0998 43.0405C89.2954 42.9124 89.548 42.8484 89.8575 42.8484C90.135 42.8484 90.3778 42.9053 90.5859 43.0192C90.794 43.1312 90.9559 43.302 91.0715 43.5314C91.1871 43.7591 91.245 44.0473 91.245 44.3959V47H90.6153V44.4386C90.6153 44.1167 90.5317 43.8659 90.3645 43.6862C90.1973 43.5048 89.9678 43.4141 89.6761 43.4141C89.4751 43.4141 89.2954 43.4576 89.1371 43.5448C88.9806 43.6319 88.857 43.7591 88.7663 43.9263C88.6756 44.0935 88.6302 44.2963 88.6302 44.5347ZM95.2985 43.8196L94.7328 43.9797C94.6973 43.8854 94.6448 43.7938 94.5754 43.7049C94.5078 43.6142 94.4153 43.5395 94.2979 43.4808C94.1805 43.4221 94.0302 43.3927 93.847 43.3927C93.5962 43.3927 93.3872 43.4505 93.22 43.5661C93.0546 43.68 92.9719 43.8249 92.9719 44.001C92.9719 44.1576 93.0288 44.2812 93.1427 44.3719C93.2565 44.4626 93.4344 44.5382 93.6763 44.5987L94.2846 44.7481C94.651 44.837 94.9241 44.9731 95.1037 45.1563C95.2834 45.3378 95.3732 45.5717 95.3732 45.858C95.3732 46.0928 95.3056 46.3027 95.1704 46.4877C95.037 46.6727 94.8502 46.8186 94.6101 46.9253C94.37 47.032 94.0907 47.0854 93.7723 47.0854C93.3543 47.0854 93.0084 46.9947 92.7344 46.8132C92.4605 46.6318 92.2871 46.3668 92.2141 46.0181L92.8118 45.8687C92.8687 46.0893 92.9763 46.2547 93.1346 46.365C93.2947 46.4753 93.5037 46.5304 93.7617 46.5304C94.0551 46.5304 94.2882 46.4682 94.4607 46.3436C94.635 46.2174 94.7222 46.0662 94.7222 45.8901C94.7222 45.7478 94.6724 45.6286 94.5728 45.5325C94.4732 45.4347 94.3202 45.3618 94.1138 45.3138L93.4308 45.1537C93.0555 45.0647 92.7798 44.9269 92.6037 44.7401C92.4294 44.5516 92.3422 44.3159 92.3422 44.0331C92.3422 43.8018 92.4071 43.5973 92.537 43.4194C92.6686 43.2415 92.8474 43.1019 93.0733 43.0005C93.301 42.8991 93.5589 42.8484 93.847 42.8484C94.2526 42.8484 94.571 42.9373 94.8022 43.1152C95.0352 43.2931 95.2007 43.5279 95.2985 43.8196ZM96.321 48.5368V42.9018H96.9294V43.5528H97.0041C97.0503 43.4816 97.1144 43.3909 97.1962 43.2806C97.2798 43.1686 97.399 43.069 97.5537 42.9818C97.7102 42.8929 97.9219 42.8484 98.1887 42.8484C98.5338 42.8484 98.838 42.9347 99.1012 43.1072C99.3645 43.2798 99.5699 43.5243 99.7176 43.8409C99.8652 44.1576 99.939 44.5311 99.939 44.9616C99.939 45.3956 99.8652 45.7718 99.7176 46.0902C99.5699 46.4068 99.3654 46.6523 99.1039 46.8266C98.8424 46.9991 98.5409 47.0854 98.1994 47.0854C97.9361 47.0854 97.7254 47.0418 97.5671 46.9546C97.4087 46.8657 97.2869 46.7652 97.2015 46.6531C97.1161 46.5393 97.0503 46.445 97.0041 46.3703H96.9507V48.5368H96.321ZM96.94 44.9509C96.94 45.2604 96.9854 45.5334 97.0761 45.77C97.1668 46.0048 97.2994 46.1889 97.4737 46.3223C97.648 46.4539 97.8614 46.5197 98.114 46.5197C98.3773 46.5197 98.5969 46.4504 98.773 46.3116C98.9509 46.1711 99.0843 45.9826 99.1733 45.746C99.264 45.5076 99.3093 45.2426 99.3093 44.9509C99.3093 44.6627 99.2649 44.403 99.1759 44.1718C99.0888 43.9388 98.9563 43.7547 98.7784 43.6195C98.6023 43.4825 98.3808 43.4141 98.114 43.4141C97.8579 43.4141 97.6427 43.479 97.4683 43.6088C97.294 43.7369 97.1624 43.9165 97.0735 44.1478C96.9845 44.3772 96.94 44.6449 96.94 44.9509ZM102.564 47.0854C102.194 47.0854 101.87 46.9973 101.591 46.8212C101.313 46.6451 101.096 46.3988 100.94 46.0822C100.785 45.7656 100.707 45.3956 100.707 44.9722C100.707 44.5453 100.785 44.1727 100.94 43.8543C101.096 43.5359 101.313 43.2886 101.591 43.1126C101.87 42.9365 102.194 42.8484 102.564 42.8484C102.934 42.8484 103.258 42.9365 103.536 43.1126C103.815 43.2886 104.032 43.5359 104.187 43.8543C104.343 44.1727 104.421 44.5453 104.421 44.9722C104.421 45.3956 104.343 45.7656 104.187 46.0822C104.032 46.3988 103.815 46.6451 103.536 46.8212C103.258 46.9973 102.934 47.0854 102.564 47.0854ZM102.564 46.5197C102.845 46.5197 103.077 46.4477 103.258 46.3036C103.44 46.1595 103.574 45.9701 103.661 45.7353C103.748 45.5005 103.792 45.2462 103.792 44.9722C103.792 44.6983 103.748 44.4431 103.661 44.2065C103.574 43.9699 103.44 43.7787 103.258 43.6328C103.077 43.487 102.845 43.4141 102.564 43.4141C102.283 43.4141 102.052 43.487 101.871 43.6328C101.689 43.7787 101.555 43.9699 101.468 44.2065C101.381 44.4431 101.337 44.6983 101.337 44.9722C101.337 45.2462 101.381 45.5005 101.468 45.7353C101.555 45.9701 101.689 46.1595 101.871 46.3036C102.052 46.4477 102.283 46.5197 102.564 46.5197ZM105.383 47V42.9018H105.991V43.5208H106.034C106.108 43.318 106.244 43.1535 106.439 43.0272C106.635 42.9009 106.855 42.8377 107.101 42.8377C107.147 42.8377 107.205 42.8386 107.274 42.8404C107.344 42.8422 107.396 42.8449 107.432 42.8484V43.4888C107.41 43.4834 107.361 43.4754 107.285 43.4647C107.21 43.4523 107.131 43.4461 107.048 43.4461C106.848 43.4461 106.67 43.4879 106.514 43.5715C106.359 43.6533 106.236 43.7671 106.146 43.913C106.057 44.0571 106.012 44.2216 106.012 44.4066V47H105.383ZM110.217 42.9018V43.4354H108.093V42.9018H110.217ZM108.712 41.9199H109.342V45.826C109.342 46.0039 109.368 46.1373 109.419 46.2262C109.473 46.3134 109.54 46.3721 109.622 46.4023C109.706 46.4308 109.794 46.445 109.886 46.445C109.956 46.445 110.013 46.4415 110.057 46.4344C110.102 46.4255 110.137 46.4184 110.164 46.413L110.292 46.9787C110.249 46.9947 110.19 47.0107 110.113 47.0267C110.037 47.0445 109.94 47.0534 109.822 47.0534C109.645 47.0534 109.47 47.0151 109.299 46.9386C109.13 46.8621 108.99 46.7456 108.878 46.5891C108.768 46.4326 108.712 46.2351 108.712 45.9968V41.9199ZM112.839 47.0854C112.444 47.0854 112.103 46.9982 111.817 46.8239C111.532 46.6478 111.313 46.4023 111.158 46.0875C111.005 45.7709 110.928 45.4027 110.928 44.9829C110.928 44.5631 111.005 44.1931 111.158 43.873C111.313 43.551 111.528 43.3002 111.803 43.1206C112.081 42.9391 112.405 42.8484 112.775 42.8484C112.988 42.8484 113.199 42.884 113.407 42.9551C113.615 43.0263 113.805 43.1419 113.975 43.302C114.146 43.4603 114.282 43.6702 114.384 43.9317C114.485 44.1931 114.536 44.5151 114.536 44.8975V45.1643H111.377V44.62H113.895C113.895 44.3888 113.849 44.1825 113.757 44.001C113.666 43.8196 113.536 43.6764 113.367 43.5715C113.2 43.4665 113.002 43.4141 112.775 43.4141C112.524 43.4141 112.307 43.4763 112.124 43.6008C111.942 43.7236 111.803 43.8836 111.705 44.0811C111.607 44.2785 111.558 44.4902 111.558 44.7161V45.079C111.558 45.3885 111.611 45.6508 111.718 45.8661C111.827 46.0795 111.977 46.2423 112.169 46.3543C112.361 46.4646 112.584 46.5197 112.839 46.5197C113.004 46.5197 113.154 46.4966 113.287 46.4504C113.422 46.4023 113.539 46.3312 113.636 46.2369C113.734 46.1409 113.81 46.0217 113.863 45.8794L114.472 46.0502C114.408 46.2565 114.3 46.4379 114.149 46.5944C113.998 46.7492 113.811 46.8702 113.588 46.9573C113.366 47.0427 113.116 47.0854 112.839 47.0854Z" fill="black"/>
<path d="M86.6617 63V57.5357H88.508C88.9349 57.5357 89.2853 57.6086 89.5593 57.7545C89.8332 57.8986 90.036 58.0969 90.1676 58.3495C90.2992 58.6021 90.365 58.8893 90.365 59.2113C90.365 59.5332 90.2992 59.8187 90.1676 60.0677C90.036 60.3168 89.8341 60.5124 89.5619 60.6547C89.2898 60.7952 88.942 60.8655 88.5187 60.8655H87.0246V60.2678H88.4974C88.7891 60.2678 89.0239 60.2252 89.2017 60.1398C89.3814 60.0544 89.5112 59.9334 89.5913 59.7769C89.6731 59.6186 89.714 59.4301 89.714 59.2113C89.714 58.9925 89.6731 58.8013 89.5913 58.6376C89.5095 58.474 89.3787 58.3477 89.1991 58.2588C89.0194 58.168 88.782 58.1227 88.4867 58.1227H87.3234V63H86.6617ZM89.2338 60.5453L90.5785 63H89.8101L88.4867 60.5453H89.2338ZM93.0565 63.0854C92.6616 63.0854 92.321 62.9982 92.0346 62.8239C91.75 62.6478 91.5303 62.4023 91.3756 62.0875C91.2226 61.7709 91.1461 61.4027 91.1461 60.9829C91.1461 60.5631 91.2226 60.1931 91.3756 59.873C91.5303 59.551 91.7456 59.3002 92.0213 59.1206C92.2988 58.9391 92.6225 58.8484 92.9925 58.8484C93.2059 58.8484 93.4167 58.884 93.6248 58.9551C93.8329 59.0263 94.0224 59.1419 94.1931 59.302C94.3639 59.4603 94.5 59.6702 94.6013 59.9317C94.7027 60.1931 94.7534 60.5151 94.7534 60.8975V61.1643H91.5944V60.62H94.1131C94.1131 60.3888 94.0668 60.1825 93.9743 60.001C93.8836 59.8196 93.7538 59.6764 93.5848 59.5715C93.4176 59.4665 93.2201 59.4141 92.9925 59.4141C92.7417 59.4141 92.5247 59.4763 92.3414 59.6008C92.16 59.7236 92.0204 59.8836 91.9226 60.0811C91.8247 60.2785 91.7758 60.4902 91.7758 60.7161V61.079C91.7758 61.3885 91.8292 61.6508 91.9359 61.8661C92.0444 62.0795 92.1947 62.2423 92.3868 62.3543C92.5789 62.4646 92.8021 62.5197 93.0565 62.5197C93.2219 62.5197 93.3713 62.4966 93.5047 62.4504C93.6399 62.4023 93.7564 62.3312 93.8543 62.2369C93.9521 62.1409 94.0277 62.0217 94.0811 61.8794L94.6894 62.0502C94.6254 62.2565 94.5177 62.4379 94.3665 62.5944C94.2154 62.7492 94.0286 62.8702 93.8062 62.9573C93.5839 63.0427 93.334 63.0854 93.0565 63.0854ZM97.2588 63.0854C96.9173 63.0854 96.6158 62.9991 96.3543 62.8266C96.0928 62.6523 95.8883 62.4068 95.7406 62.0902C95.593 61.7718 95.5192 61.3956 95.5192 60.9616C95.5192 60.5311 95.593 60.1576 95.7406 59.8409C95.8883 59.5243 96.0937 59.2798 96.357 59.1072C96.6202 58.9347 96.9244 58.8484 97.2695 58.8484C97.5363 58.8484 97.7471 58.8929 97.9018 58.9818C98.0583 59.069 98.1775 59.1686 98.2593 59.2806C98.3429 59.3909 98.4079 59.4816 98.4541 59.5528H98.5075V57.5357H99.1371V63H98.5288V62.3703H98.4541C98.4079 62.445 98.342 62.5393 98.2567 62.6531C98.1713 62.7652 98.0494 62.8657 97.8911 62.9546C97.7328 63.0418 97.522 63.0854 97.2588 63.0854ZM97.3442 62.5197C97.5967 62.5197 97.8102 62.4539 97.9845 62.3223C98.1588 62.1889 98.2913 62.0048 98.3821 61.77C98.4728 61.5334 98.5181 61.2604 98.5181 60.9509C98.5181 60.6449 98.4737 60.3772 98.3847 60.1478C98.2958 59.9165 98.1642 59.7369 97.9898 59.6088C97.8155 59.479 97.6003 59.4141 97.3442 59.4141C97.0774 59.4141 96.855 59.4825 96.6771 59.6195C96.501 59.7547 96.3685 59.9388 96.2796 60.1718C96.1924 60.403 96.1488 60.6627 96.1488 60.9509C96.1488 61.2426 96.1933 61.5076 96.2823 61.746C96.373 61.9826 96.5064 62.1711 96.6825 62.3116C96.8603 62.4504 97.0809 62.5197 97.3442 62.5197ZM102.096 63.0854C101.701 63.0854 101.361 62.9982 101.074 62.8239C100.79 62.6478 100.57 62.4023 100.415 62.0875C100.262 61.7709 100.186 61.4027 100.186 60.9829C100.186 60.5631 100.262 60.1931 100.415 59.873C100.57 59.551 100.785 59.3002 101.061 59.1206C101.338 58.9391 101.662 58.8484 102.032 58.8484C102.245 58.8484 102.456 58.884 102.664 58.9551C102.873 59.0263 103.062 59.1419 103.233 59.302C103.403 59.4603 103.54 59.6702 103.641 59.9317C103.742 60.1931 103.793 60.5151 103.793 60.8975V61.1643H100.634V60.62H103.153C103.153 60.3888 103.106 60.1825 103.014 60.001C102.923 59.8196 102.793 59.6764 102.624 59.5715C102.457 59.4665 102.26 59.4141 102.032 59.4141C101.781 59.4141 101.564 59.4763 101.381 59.6008C101.2 59.7236 101.06 59.8836 100.962 60.0811C100.864 60.2785 100.815 60.4902 100.815 60.7161V61.079C100.815 61.3885 100.869 61.6508 100.975 61.8661C101.084 62.0795 101.234 62.2423 101.426 62.3543C101.618 62.4646 101.842 62.5197 102.096 62.5197C102.262 62.5197 102.411 62.4966 102.544 62.4504C102.68 62.4023 102.796 62.3312 102.894 62.2369C102.992 62.1409 103.067 62.0217 103.121 61.8794L103.729 62.0502C103.665 62.2565 103.557 62.4379 103.406 62.5944C103.255 62.7492 103.068 62.8702 102.846 62.9573C102.623 63.0427 102.374 63.0854 102.096 63.0854Z" fill="black"/>
<path d="M83.6617 79V73.5357H86.9595V74.1227H84.3234V75.969H86.7887V76.556H84.3234V78.413H87.0022V79H83.6617ZM88.6964 76.5347V79H88.0668V74.9018H88.6751V75.5421H88.7284C88.8245 75.334 88.9704 75.1668 89.166 75.0405C89.3617 74.9124 89.6143 74.8484 89.9238 74.8484C90.2012 74.8484 90.444 74.9053 90.6522 75.0192C90.8603 75.1312 91.0221 75.302 91.1378 75.5314C91.2534 75.7591 91.3112 76.0473 91.3112 76.3959V79H90.6815V76.4386C90.6815 76.1167 90.5979 75.8659 90.4307 75.6862C90.2635 75.5048 90.034 75.4141 89.7423 75.4141C89.5413 75.4141 89.3617 75.4576 89.2034 75.5448C89.0468 75.6319 88.9232 75.7591 88.8325 75.9263C88.7418 76.0935 88.6964 76.2963 88.6964 76.5347ZM93.0915 73.5357V79H92.4618V73.5357H93.0915ZM95.4508 79.0961C95.1911 79.0961 94.9554 79.0471 94.7437 78.9493C94.532 78.8497 94.364 78.7065 94.2394 78.5197C94.1149 78.3312 94.0527 78.1035 94.0527 77.8367C94.0527 77.6019 94.0989 77.4116 94.1914 77.2657C94.2839 77.1181 94.4075 77.0025 94.5623 76.9189C94.717 76.8353 94.8878 76.773 95.0746 76.7321C95.2631 76.6894 95.4525 76.6556 95.6429 76.6307C95.8919 76.5987 96.0938 76.5747 96.2485 76.5587C96.4051 76.5409 96.5189 76.5115 96.5901 76.4706C96.663 76.4297 96.6994 76.3586 96.6994 76.2572V76.2358C96.6994 75.9726 96.6274 75.768 96.4833 75.6222C96.341 75.4763 96.1249 75.4034 95.835 75.4034C95.5344 75.4034 95.2987 75.4692 95.1279 75.6008C94.9572 75.7324 94.8371 75.873 94.7677 76.0224L94.1701 75.8089C94.2768 75.5599 94.4191 75.366 94.597 75.2273C94.7766 75.0868 94.9723 74.9889 95.184 74.9338C95.3974 74.8769 95.6073 74.8484 95.8136 74.8484C95.9453 74.8484 96.0965 74.8644 96.2672 74.8964C96.4397 74.9267 96.6061 74.9898 96.7661 75.0859C96.928 75.1819 97.0623 75.3269 97.169 75.5208C97.2758 75.7147 97.3291 75.9744 97.3291 76.2999V79H96.6994V78.445H96.6674C96.6247 78.534 96.5536 78.6291 96.454 78.7305C96.3544 78.8319 96.2219 78.9182 96.0564 78.9893C95.891 79.0605 95.6891 79.0961 95.4508 79.0961ZM95.5468 78.5304C95.7958 78.5304 96.0057 78.4815 96.1765 78.3837C96.349 78.2858 96.4789 78.1595 96.566 78.0048C96.655 77.85 96.6994 77.6873 96.6994 77.5165V76.9402C96.6728 76.9722 96.6141 77.0016 96.5233 77.0283C96.4344 77.0532 96.3312 77.0754 96.2138 77.095C96.0982 77.1128 95.9853 77.1288 95.875 77.143C95.7665 77.1554 95.6784 77.1661 95.6109 77.175C95.4472 77.1964 95.2942 77.231 95.1519 77.2791C95.0114 77.3253 94.8976 77.3956 94.8104 77.4898C94.725 77.5823 94.6823 77.7086 94.6823 77.8687C94.6823 78.0875 94.7633 78.2529 94.9251 78.365C95.0888 78.4753 95.296 78.5304 95.5468 78.5304ZM100.143 79.0854C99.7591 79.0854 99.4283 78.9947 99.1508 78.8132C98.8733 78.6318 98.6598 78.3819 98.5104 78.0635C98.361 77.7451 98.2863 77.3813 98.2863 76.9722C98.2863 76.556 98.3628 76.1887 98.5158 75.8703C98.6705 75.5501 98.8857 75.3002 99.1615 75.1206C99.4389 74.9391 99.7627 74.8484 100.133 74.8484C100.421 74.8484 100.68 74.9018 100.912 75.0085C101.143 75.1152 101.332 75.2646 101.48 75.4567C101.628 75.6488 101.719 75.873 101.755 76.1291H101.125C101.077 75.9423 100.97 75.7769 100.805 75.6328C100.641 75.487 100.421 75.4141 100.143 75.4141C99.8979 75.4141 99.6826 75.4781 99.4976 75.6062C99.3144 75.7324 99.1712 75.9112 99.0681 76.1424C98.9667 76.3719 98.916 76.6414 98.916 76.9509C98.916 77.2675 98.9658 77.5432 99.0654 77.778C99.1668 78.0128 99.3091 78.1951 99.4923 78.325C99.6773 78.4548 99.8943 78.5197 100.143 78.5197C100.307 78.5197 100.455 78.4913 100.589 78.4344C100.722 78.3774 100.835 78.2956 100.928 78.1889C101.02 78.0822 101.086 77.9541 101.125 77.8047H101.755C101.719 78.0466 101.631 78.2645 101.491 78.4584C101.352 78.6505 101.168 78.8034 100.938 78.9173C100.711 79.0293 100.446 79.0854 100.143 79.0854ZM104.394 79.0854C103.999 79.0854 103.658 78.9982 103.372 78.8239C103.087 78.6478 102.867 78.4023 102.713 78.0875C102.56 77.7709 102.483 77.4027 102.483 76.9829C102.483 76.5631 102.56 76.1931 102.713 75.873C102.867 75.551 103.083 75.3002 103.358 75.1206C103.636 74.9391 103.96 74.8484 104.33 74.8484C104.543 74.8484 104.754 74.884 104.962 74.9551C105.17 75.0263 105.359 75.1419 105.53 75.302C105.701 75.4603 105.837 75.6702 105.938 75.9317C106.04 76.1931 106.091 76.5151 106.091 76.8975V77.1643H102.931V76.62H105.45C105.45 76.3888 105.404 76.1825 105.311 76.001C105.221 75.8196 105.091 75.6764 104.922 75.5715C104.755 75.4665 104.557 75.4141 104.33 75.4141C104.079 75.4141 103.862 75.4763 103.679 75.6008C103.497 75.7236 103.358 75.8836 103.26 76.0811C103.162 76.2785 103.113 76.4902 103.113 76.7161V77.079C103.113 77.3885 103.166 77.6508 103.273 77.8661C103.382 78.0795 103.532 78.2423 103.724 78.3543C103.916 78.4646 104.139 78.5197 104.394 78.5197C104.559 78.5197 104.708 78.4966 104.842 78.4504C104.977 78.4023 105.094 78.3312 105.191 78.2369C105.289 78.1409 105.365 78.0217 105.418 77.8794L106.027 78.0502C105.962 78.2565 105.855 78.4379 105.704 78.5944C105.552 78.7492 105.366 78.8702 105.143 78.9573C104.921 79.0427 104.671 79.0854 104.394 79.0854Z" fill="black"/>
<path d="M85.6617 95V89.5357H88.9381V90.1227H86.3234V91.969H88.6927V92.556H86.3234V95H85.6617ZM89.986 95V90.9018H90.6157V95H89.986ZM90.0181 90.3468L90.6691 89.1088H91.4055L90.573 90.3468H90.0181ZM94.6719 91.8196L94.1063 91.9797C94.0707 91.8854 94.0182 91.7938 93.9489 91.7049C93.8813 91.6142 93.7888 91.5395 93.6714 91.4808C93.554 91.4221 93.4037 91.3927 93.2205 91.3927C92.9697 91.3927 92.7607 91.4505 92.5935 91.5661C92.428 91.68 92.3453 91.8249 92.3453 92.001C92.3453 92.1576 92.4022 92.2812 92.5161 92.3719C92.6299 92.4626 92.8078 92.5382 93.0497 92.5987L93.658 92.7481C94.0245 92.837 94.2975 92.9731 94.4772 93.1563C94.6568 93.3378 94.7466 93.5717 94.7466 93.858C94.7466 94.0928 94.679 94.3027 94.5439 94.4877C94.4104 94.6727 94.2237 94.8186 93.9835 94.9253C93.7434 95.032 93.4642 95.0854 93.1458 95.0854C92.7278 95.0854 92.3818 94.9947 92.1079 94.8132C91.8339 94.6318 91.6605 94.3668 91.5876 94.0181L92.1852 93.8687C92.2422 94.0893 92.3498 94.2547 92.5081 94.365C92.6682 94.4753 92.8772 94.5304 93.1351 94.5304C93.4286 94.5304 93.6616 94.4682 93.8341 94.3436C94.0085 94.2174 94.0956 94.0662 94.0956 93.8901C94.0956 93.7478 94.0458 93.6286 93.9462 93.5325C93.8466 93.4347 93.6936 93.3618 93.4873 93.3138L92.8042 93.1537C92.4289 93.0647 92.1532 92.9269 91.9771 92.7401C91.8028 92.5516 91.7156 92.3159 91.7156 92.0331C91.7156 91.8018 91.7806 91.5973 91.9104 91.4194C92.042 91.2415 92.2208 91.1019 92.4467 91.0005C92.6744 90.8991 92.9323 90.8484 93.2205 90.8484C93.626 90.8484 93.9444 90.9373 94.1757 91.1152C94.4087 91.2931 94.5741 91.5279 94.6719 91.8196ZM95.6945 95V90.9018H96.3242V95H95.6945ZM96.0147 90.2187C95.8919 90.2187 95.7861 90.1769 95.6971 90.0933C95.61 90.0097 95.5664 89.9092 95.5664 89.7918C95.5664 89.6744 95.61 89.5739 95.6971 89.4903C95.7861 89.4067 95.8919 89.3649 96.0147 89.3649C96.1374 89.3649 96.2423 89.4067 96.3295 89.4903C96.4184 89.5739 96.4629 89.6744 96.4629 89.7918C96.4629 89.9092 96.4184 90.0097 96.3295 90.0933C96.2423 90.1769 96.1374 90.2187 96.0147 90.2187ZM99.1424 95.0854C98.7581 95.0854 98.4273 94.9947 98.1498 94.8132C97.8723 94.6318 97.6589 94.3819 97.5095 94.0635C97.3601 93.7451 97.2853 93.3813 97.2853 92.9722C97.2853 92.556 97.3618 92.1887 97.5148 91.8703C97.6696 91.5501 97.8848 91.3002 98.1605 91.1206C98.438 90.9391 98.7617 90.8484 99.1317 90.8484C99.4198 90.8484 99.6795 90.9018 99.9108 91.0085C100.142 91.1152 100.331 91.2646 100.479 91.4567C100.627 91.6488 100.718 91.873 100.754 92.1291H100.124C100.076 91.9423 99.9695 91.7769 99.804 91.6328C99.6404 91.487 99.4198 91.4141 99.1424 91.4141C98.8969 91.4141 98.6817 91.4781 98.4967 91.6062C98.3135 91.7324 98.1703 91.9112 98.0671 92.1424C97.9657 92.3719 97.915 92.6414 97.915 92.9509C97.915 93.2675 97.9648 93.5432 98.0644 93.778C98.1658 94.0128 98.3081 94.1951 98.4913 94.325C98.6763 94.4548 98.8933 94.5197 99.1424 94.5197C99.306 94.5197 99.4545 94.4913 99.5879 94.4344C99.7213 94.3774 99.8343 94.2956 99.9268 94.1889C100.019 94.0822 100.085 93.9541 100.124 93.8047H100.754C100.718 94.0466 100.63 94.2645 100.49 94.4584C100.351 94.6505 100.167 94.8034 99.9375 94.9173C99.7098 95.0293 99.4447 95.0854 99.1424 95.0854ZM103.339 95.0854C102.969 95.0854 102.645 94.9973 102.365 94.8212C102.088 94.6451 101.871 94.3988 101.714 94.0822C101.56 93.7656 101.482 93.3956 101.482 92.9722C101.482 92.5453 101.56 92.1727 101.714 91.8543C101.871 91.5359 102.088 91.2886 102.365 91.1126C102.645 90.9365 102.969 90.8484 103.339 90.8484C103.709 90.8484 104.033 90.9365 104.31 91.1126C104.59 91.2886 104.807 91.5359 104.962 91.8543C105.118 92.1727 105.196 92.5453 105.196 92.9722C105.196 93.3956 105.118 93.7656 104.962 94.0822C104.807 94.3988 104.59 94.6451 104.31 94.8212C104.033 94.9973 103.709 95.0854 103.339 95.0854ZM103.339 94.5197C103.62 94.5197 103.852 94.4477 104.033 94.3036C104.214 94.1595 104.349 93.9701 104.436 93.7353C104.523 93.5005 104.567 93.2462 104.567 92.9722C104.567 92.6983 104.523 92.4431 104.436 92.2065C104.349 91.9699 104.214 91.7787 104.033 91.6328C103.852 91.487 103.62 91.4141 103.339 91.4141C103.058 91.4141 102.827 91.487 102.646 91.6328C102.464 91.7787 102.33 91.9699 102.243 92.2065C102.156 92.4431 102.112 92.6983 102.112 92.9722C102.112 93.2462 102.156 93.5005 102.243 93.7353C102.33 93.9701 102.464 94.1595 102.646 94.3036C102.827 94.4477 103.058 94.5197 103.339 94.5197Z" fill="black"/>
</svg>
