<svg width="190" height="121" viewBox="0 0 190 121" fill="none" xmlns="http://www.w3.org/2000/svg">
<rect width="189.5" height="120.5" fill="white"/>
<line x1="67" y1="54" x2="87" y2="54" stroke="#CBCCD0" stroke-width="2"/>
<line x1="87" y1="37" x2="87" y2="54" stroke="#CBCCD0" stroke-width="2"/>
<line x1="87" y1="76" x2="87" y2="54" stroke="#CBCCD0" stroke-width="2"/>
<line x1="109" y1="54" x2="87" y2="54" stroke="#CBCCD0" stroke-width="2"/>
<line x1="102.232" y1="71.6402" x2="87.2318" y2="53.6402" stroke="#CBCCD0" stroke-width="2"/>
<circle cx="86.5" cy="36.5" r="4.35" fill="#00A6DF" stroke="black" stroke-width="0.3"/>
<circle cx="86.5" cy="75.5" r="4.35" fill="#00A6DF" stroke="black" stroke-width="0.3"/>
<circle cx="103.5" cy="70.5" r="4.35" fill="#00A6DF" stroke="black" stroke-width="0.3"/>
<circle cx="130.5" cy="110.5" r="4.35" fill="#00A6DF" stroke="black" stroke-width="0.3"/>
<circle cx="64.5" cy="53.5" r="4.35" fill="#00A6DF" stroke="black" stroke-width="0.3"/>
<circle cx="108.5" cy="53.5" r="4.35" fill="#00A6DF" stroke="black" stroke-width="0.3"/>
<circle cx="86.5" cy="53.5" r="4.35" fill="#F06E00" stroke="black" stroke-width="0.3"/>
<circle cx="130.5" cy="98.5" r="4.35" fill="#F06E00" stroke="black" stroke-width="0.3"/>
<circle cx="86.5" cy="57.5" r="35.5" stroke="#E6E7E9" stroke-width="2"/>
<path d="M78.4281 88.1416V83.9556H78.88V84.4392H78.9355C78.9699 84.3864 79.0174 84.319 79.0782 84.2371C79.1403 84.1538 79.2289 84.0798 79.3438 84.0151C79.4601 83.949 79.6173 83.916 79.8155 83.916C80.0719 83.916 80.2978 83.98 80.4934 84.1082C80.689 84.2364 80.8416 84.4181 80.9512 84.6533C81.0609 84.8885 81.1158 85.166 81.1158 85.4857C81.1158 85.8081 81.0609 86.0876 80.9512 86.3241C80.8416 86.5593 80.6896 86.7417 80.4954 86.8712C80.3011 86.9993 80.0772 87.0634 79.8235 87.0634C79.6279 87.0634 79.4713 87.0311 79.3537 86.9663C79.2361 86.9002 79.1456 86.8256 79.0822 86.7423C79.0188 86.6578 78.9699 86.5877 78.9355 86.5322H78.8959V88.1416H78.4281ZM78.8879 85.4778C78.8879 85.7077 78.9216 85.9105 78.989 86.0863C79.0564 86.2607 79.1549 86.3975 79.2844 86.4966C79.4138 86.5943 79.5724 86.6432 79.76 86.6432C79.9556 86.6432 80.1188 86.5917 80.2496 86.4886C80.3817 86.3842 80.4808 86.2442 80.5469 86.0684C80.6143 85.8914 80.648 85.6945 80.648 85.4778C80.648 85.2637 80.615 85.0708 80.5489 84.899C80.4841 84.726 80.3857 84.5892 80.2536 84.4888C80.1228 84.387 79.9582 84.3362 79.76 84.3362C79.5698 84.3362 79.4099 84.3844 79.2804 84.4808C79.1509 84.576 79.0531 84.7094 78.9871 84.8812C78.921 85.0517 78.8879 85.2505 78.8879 85.4778ZM81.8293 87V83.9556H82.297V87H81.8293ZM82.0671 83.4482C81.976 83.4482 81.8973 83.4172 81.8313 83.355C81.7665 83.2929 81.7341 83.2183 81.7341 83.1311C81.7341 83.0439 81.7665 82.9692 81.8313 82.9071C81.8973 82.845 81.976 82.814 82.0671 82.814C82.1583 82.814 82.2363 82.845 82.301 82.9071C82.3671 82.9692 82.4001 83.0439 82.4001 83.1311C82.4001 83.2183 82.3671 83.2929 82.301 83.355C82.2363 83.4172 82.1583 83.4482 82.0671 83.4482ZM84.3906 87.0634C84.1051 87.0634 83.8594 86.996 83.6532 86.8613C83.4471 86.7265 83.2886 86.5408 83.1776 86.3043C83.0666 86.0678 83.0111 85.7976 83.0111 85.4937C83.0111 85.1845 83.0679 84.9116 83.1815 84.6751C83.2965 84.4372 83.4564 84.2516 83.6612 84.1181C83.8673 83.9834 84.1078 83.916 84.3826 83.916C84.5967 83.916 84.7896 83.9556 84.9614 84.0349C85.1332 84.1142 85.2739 84.2252 85.3836 84.3679C85.4932 84.5106 85.5613 84.6771 85.5877 84.8673H85.1199C85.0843 84.7286 85.005 84.6057 84.8821 84.4987C84.7605 84.3903 84.5967 84.3362 84.3906 84.3362C84.2082 84.3362 84.0483 84.3837 83.9109 84.4789C83.7748 84.5727 83.6684 84.7055 83.5918 84.8772C83.5165 85.0477 83.4788 85.2479 83.4788 85.4778C83.4788 85.713 83.5158 85.9178 83.5898 86.0922C83.6651 86.2666 83.7708 86.4021 83.9069 86.4985C84.0444 86.595 84.2056 86.6432 84.3906 86.6432C84.5121 86.6432 84.6225 86.6221 84.7216 86.5798C84.8207 86.5375 84.9046 86.4767 84.9733 86.3975C85.042 86.3182 85.0909 86.223 85.1199 86.1121H85.5877C85.5613 86.2918 85.4959 86.4536 85.3915 86.5976C85.2884 86.7404 85.1517 86.854 84.9812 86.9386C84.8121 87.0218 84.6152 87.0634 84.3906 87.0634ZM87.5083 87.0634C87.2335 87.0634 86.9923 86.998 86.7849 86.8672C86.5787 86.7364 86.4175 86.5534 86.3012 86.3182C86.1863 86.083 86.1288 85.8081 86.1288 85.4937C86.1288 85.1765 86.1863 84.8997 86.3012 84.6632C86.4175 84.4267 86.5787 84.243 86.7849 84.1122C86.9923 83.9814 87.2335 83.916 87.5083 83.916C87.7831 83.916 88.0236 83.9814 88.2298 84.1122C88.4372 84.243 88.5984 84.4267 88.7134 84.6632C88.8296 84.8997 88.8878 85.1765 88.8878 85.4937C88.8878 85.8081 88.8296 86.083 88.7134 86.3182C88.5984 86.5534 88.4372 86.7364 88.2298 86.8672C88.0236 86.998 87.7831 87.0634 87.5083 87.0634ZM87.5083 86.6432C87.7171 86.6432 87.8888 86.5897 88.0236 86.4827C88.1584 86.3757 88.2582 86.2349 88.3229 86.0605C88.3877 85.8861 88.42 85.6971 88.42 85.4937C88.42 85.2902 88.3877 85.1006 88.3229 84.9248C88.2582 84.7491 88.1584 84.607 88.0236 84.4987C87.8888 84.3903 87.7171 84.3362 87.5083 84.3362C87.2995 84.3362 87.1277 84.3903 86.993 84.4987C86.8582 84.607 86.7584 84.7491 86.6937 84.9248C86.6289 85.1006 86.5966 85.2902 86.5966 85.4937C86.5966 85.6971 86.6289 85.8861 86.6937 86.0605C86.7584 86.2349 86.8582 86.3757 86.993 86.4827C87.1277 86.5897 87.2995 86.6432 87.5083 86.6432ZM90.0696 85.1686V87H89.6018V83.9556H90.0537V84.4313H90.0934C90.1647 84.2767 90.2731 84.1525 90.4184 84.0587C90.5638 83.9635 90.7514 83.916 90.9813 83.916C91.1874 83.916 91.3678 83.9582 91.5224 84.0428C91.677 84.1261 91.7972 84.2529 91.8831 84.4234C91.969 84.5925 92.012 84.8066 92.012 85.0655V87H91.5442V85.0973C91.5442 84.8581 91.4821 84.6718 91.3579 84.5383C91.2337 84.4035 91.0632 84.3362 90.8465 84.3362C90.6972 84.3362 90.5638 84.3685 90.4462 84.4333C90.3299 84.498 90.238 84.5925 90.1707 84.7167C90.1033 84.8409 90.0696 84.9915 90.0696 85.1686ZM94.1431 87.0634C93.8498 87.0634 93.5968 86.9987 93.384 86.8692C93.1726 86.7384 93.0094 86.556 92.8945 86.3221C92.7808 86.0869 92.724 85.8134 92.724 85.5016C92.724 85.1897 92.7808 84.9149 92.8945 84.6771C93.0094 84.4379 93.1693 84.2516 93.3741 84.1181C93.5802 83.9834 93.8207 83.916 94.0956 83.916C94.2541 83.916 94.4107 83.9424 94.5653 83.9952C94.7199 84.0481 94.8606 84.134 94.9875 84.2529C95.1143 84.3705 95.2154 84.5264 95.2907 84.7207C95.366 84.9149 95.4037 85.1541 95.4037 85.4382V85.6364H93.057V85.232H94.928C94.928 85.0603 94.8937 84.907 94.825 84.7722C94.7576 84.6374 94.6611 84.5311 94.5356 84.4531C94.4114 84.3751 94.2647 84.3362 94.0956 84.3362C93.9093 84.3362 93.748 84.3824 93.612 84.4749C93.4772 84.5661 93.3734 84.685 93.3008 84.8317C93.2281 84.9783 93.1918 85.1356 93.1918 85.3034V85.5729C93.1918 85.8029 93.2314 85.9978 93.3107 86.1576C93.3913 86.3162 93.5029 86.4371 93.6456 86.5203C93.7884 86.6023 93.9542 86.6432 94.1431 86.6432C94.266 86.6432 94.377 86.6261 94.4761 86.5917C94.5765 86.556 94.6631 86.5032 94.7358 86.4331C94.8084 86.3618 94.8646 86.2733 94.9042 86.1675L95.3561 86.2944C95.3086 86.4477 95.2286 86.5825 95.1163 86.6987C95.004 86.8137 94.8653 86.9035 94.7001 86.9683C94.5349 87.0317 94.3493 87.0634 94.1431 87.0634ZM97.4392 83.9556V84.352H95.8616V83.9556H97.4392ZM96.3214 83.2262H96.7891V86.1279C96.7891 86.26 96.8083 86.3591 96.8466 86.4252C96.8863 86.49 96.9365 86.5336 96.9973 86.556C97.0594 86.5772 97.1248 86.5877 97.1935 86.5877C97.245 86.5877 97.2873 86.5851 97.3203 86.5798C97.3534 86.5732 97.3798 86.5679 97.3996 86.564L97.4947 86.9841C97.463 86.996 97.4188 87.0079 97.362 87.0198C97.3051 87.033 97.2331 87.0396 97.1459 87.0396C97.0138 87.0396 96.8843 87.0112 96.7574 86.9544C96.6319 86.8976 96.5275 86.811 96.4443 86.6948C96.3623 86.5785 96.3214 86.4318 96.3214 86.2548V83.2262Z" fill="black"/>
<path d="M138.428 101V97.9556H138.88V98.4313H138.92C138.983 98.2688 139.085 98.1426 139.227 98.0527C139.368 97.9615 139.538 97.916 139.736 97.916C139.937 97.916 140.104 97.9615 140.238 98.0527C140.372 98.1426 140.478 98.2688 140.553 98.4313H140.585C140.663 98.274 140.779 98.1492 140.935 98.0567C141.091 97.9629 141.278 97.916 141.496 97.916C141.768 97.916 141.991 98.0012 142.164 98.1716C142.337 98.3408 142.424 98.6044 142.424 98.9625V101H141.956V98.9625C141.956 98.7378 141.895 98.5773 141.772 98.4808C141.649 98.3844 141.504 98.3362 141.338 98.3362C141.124 98.3362 140.958 98.4009 140.84 98.5304C140.723 98.6586 140.664 98.8211 140.664 99.018V101H140.188V98.9149C140.188 98.7418 140.132 98.6024 140.02 98.4967C139.907 98.3897 139.763 98.3362 139.586 98.3362C139.464 98.3362 139.35 98.3685 139.245 98.4333C139.14 98.498 139.056 98.5879 138.991 98.7028C138.928 98.8165 138.896 98.9479 138.896 99.0973V101H138.428ZM144.556 101.063C144.262 101.063 144.009 100.999 143.796 100.869C143.585 100.738 143.422 100.556 143.307 100.322C143.193 100.087 143.136 99.8134 143.136 99.5016C143.136 99.1897 143.193 98.9149 143.307 98.6771C143.422 98.4379 143.582 98.2516 143.787 98.1181C143.993 97.9834 144.233 97.916 144.508 97.916C144.667 97.916 144.823 97.9424 144.978 97.9952C145.132 98.0481 145.273 98.134 145.4 98.2529C145.527 98.3705 145.628 98.5264 145.703 98.7207C145.778 98.9149 145.816 99.1541 145.816 99.4382V99.6364H143.469V99.232H145.34C145.34 99.0603 145.306 98.907 145.237 98.7722C145.17 98.6374 145.074 98.5311 144.948 98.4531C144.824 98.3751 144.677 98.3362 144.508 98.3362C144.322 98.3362 144.16 98.3824 144.024 98.4749C143.89 98.5661 143.786 98.685 143.713 98.8317C143.641 98.9783 143.604 99.1356 143.604 99.3034V99.5729C143.604 99.8029 143.644 99.9978 143.723 100.158C143.804 100.316 143.915 100.437 144.058 100.52C144.201 100.602 144.367 100.643 144.556 100.643C144.678 100.643 144.789 100.626 144.889 100.592C144.989 100.556 145.076 100.503 145.148 100.433C145.221 100.362 145.277 100.273 145.317 100.168L145.769 100.294C145.721 100.448 145.641 100.582 145.529 100.699C145.416 100.814 145.278 100.904 145.113 100.968C144.947 101.032 144.762 101.063 144.556 101.063ZM148.684 98.6374L148.264 98.7563C148.238 98.6863 148.199 98.6183 148.147 98.5522C148.097 98.4848 148.028 98.4293 147.941 98.3857C147.854 98.3421 147.742 98.3203 147.606 98.3203C147.42 98.3203 147.264 98.3632 147.14 98.4491C147.017 98.5337 146.956 98.6414 146.956 98.7722C146.956 98.8885 146.998 98.9803 147.083 99.0477C147.167 99.1151 147.299 99.1712 147.479 99.2162L147.931 99.3272C148.203 99.3932 148.406 99.4943 148.539 99.6304C148.673 99.7652 148.74 99.939 148.74 100.152C148.74 100.326 148.689 100.482 148.589 100.619C148.49 100.757 148.351 100.865 148.173 100.945C147.994 101.024 147.787 101.063 147.55 101.063C147.24 101.063 146.983 100.996 146.779 100.861C146.576 100.726 146.447 100.53 146.393 100.271L146.837 100.16C146.879 100.323 146.959 100.446 147.077 100.528C147.196 100.61 147.351 100.651 147.542 100.651C147.761 100.651 147.934 100.605 148.062 100.512C148.191 100.419 148.256 100.306 148.256 100.175C148.256 100.07 148.219 99.9812 148.145 99.9099C148.071 99.8372 147.957 99.783 147.804 99.7474L147.297 99.6284C147.018 99.5624 146.813 99.46 146.682 99.3212C146.553 99.1812 146.488 99.0061 146.488 98.796C146.488 98.6242 146.536 98.4723 146.633 98.3401C146.731 98.208 146.863 98.1043 147.031 98.0289C147.2 97.9536 147.392 97.916 147.606 97.916C147.907 97.916 148.144 97.982 148.315 98.1142C148.489 98.2463 148.611 98.4207 148.684 98.6374ZM150.768 97.9556V98.352H149.19V97.9556H150.768ZM149.65 97.2262H150.118V100.128C150.118 100.26 150.137 100.359 150.175 100.425C150.215 100.49 150.265 100.534 150.326 100.556C150.388 100.577 150.453 100.588 150.522 100.588C150.574 100.588 150.616 100.585 150.649 100.58C150.682 100.573 150.708 100.568 150.728 100.564L150.823 100.984C150.792 100.996 150.747 101.008 150.69 101.02C150.634 101.033 150.562 101.04 150.474 101.04C150.342 101.04 150.213 101.011 150.086 100.954C149.96 100.898 149.856 100.811 149.773 100.695C149.691 100.578 149.65 100.432 149.65 100.255V97.2262ZM151.471 101V97.9556H151.923V98.4154H151.955C152.01 98.2648 152.111 98.1426 152.256 98.0488C152.402 97.9549 152.565 97.908 152.748 97.908C152.782 97.908 152.825 97.9087 152.877 97.91C152.928 97.9113 152.967 97.9133 152.994 97.916V98.3916C152.978 98.3877 152.941 98.3817 152.885 98.3738C152.829 98.3646 152.77 98.3599 152.708 98.3599C152.56 98.3599 152.428 98.391 152.312 98.4531C152.197 98.5139 152.106 98.5984 152.038 98.7068C151.972 98.8138 151.939 98.936 151.939 99.0735V101H151.471ZM154.732 101.063C154.438 101.063 154.185 100.999 153.973 100.869C153.761 100.738 153.598 100.556 153.483 100.322C153.369 100.087 153.313 99.8134 153.313 99.5016C153.313 99.1897 153.369 98.9149 153.483 98.6771C153.598 98.4379 153.758 98.2516 153.963 98.1181C154.169 97.9834 154.409 97.916 154.684 97.916C154.843 97.916 154.999 97.9424 155.154 97.9952C155.309 98.0481 155.449 98.134 155.576 98.2529C155.703 98.3705 155.804 98.5264 155.879 98.7207C155.955 98.9149 155.992 99.1541 155.992 99.4382V99.6364H153.646V99.232H155.517C155.517 99.0603 155.482 98.907 155.414 98.7722C155.346 98.6374 155.25 98.5311 155.124 98.4531C155 98.3751 154.853 98.3362 154.684 98.3362C154.498 98.3362 154.337 98.3824 154.201 98.4749C154.066 98.5661 153.962 98.685 153.889 98.8317C153.817 98.9783 153.78 99.1356 153.78 99.3034V99.5729C153.78 99.8029 153.82 99.9978 153.899 100.158C153.98 100.316 154.092 100.437 154.234 100.52C154.377 100.602 154.543 100.643 154.732 100.643C154.855 100.643 154.966 100.626 155.065 100.592C155.165 100.556 155.252 100.503 155.324 100.433C155.397 100.362 155.453 100.273 155.493 100.168L155.945 100.294C155.897 100.448 155.817 100.582 155.705 100.699C155.593 100.814 155.454 100.904 155.289 100.968C155.124 101.032 154.938 101.063 154.732 101.063Z" fill="black"/>
<path d="M139.705 113.063C139.411 113.063 139.158 112.999 138.945 112.869C138.734 112.738 138.571 112.556 138.456 112.322C138.342 112.087 138.285 111.813 138.285 111.502C138.285 111.19 138.342 110.915 138.456 110.677C138.571 110.438 138.731 110.252 138.936 110.118C139.142 109.983 139.382 109.916 139.657 109.916C139.816 109.916 139.972 109.942 140.127 109.995C140.281 110.048 140.422 110.134 140.549 110.253C140.676 110.371 140.777 110.526 140.852 110.721C140.927 110.915 140.965 111.154 140.965 111.438V111.636H138.618V111.232H140.489C140.489 111.06 140.455 110.907 140.386 110.772C140.319 110.637 140.223 110.531 140.097 110.453C139.973 110.375 139.826 110.336 139.657 110.336C139.471 110.336 139.309 110.382 139.173 110.475C139.039 110.566 138.935 110.685 138.862 110.832C138.79 110.978 138.753 111.136 138.753 111.303V111.573C138.753 111.803 138.793 111.998 138.872 112.158C138.953 112.316 139.064 112.437 139.207 112.52C139.35 112.602 139.516 112.643 139.705 112.643C139.827 112.643 139.938 112.626 140.038 112.592C140.138 112.556 140.224 112.503 140.297 112.433C140.37 112.362 140.426 112.273 140.466 112.168L140.918 112.294C140.87 112.448 140.79 112.582 140.678 112.699C140.565 112.814 140.427 112.904 140.261 112.968C140.096 113.032 139.911 113.063 139.705 113.063ZM143.833 110.637L143.413 110.756C143.386 110.686 143.348 110.618 143.296 110.552C143.246 110.485 143.177 110.429 143.09 110.386C143.003 110.342 142.891 110.32 142.755 110.32C142.569 110.32 142.413 110.363 142.289 110.449C142.166 110.534 142.105 110.641 142.105 110.772C142.105 110.888 142.147 110.98 142.232 111.048C142.316 111.115 142.448 111.171 142.628 111.216L143.08 111.327C143.352 111.393 143.555 111.494 143.688 111.63C143.822 111.765 143.889 111.939 143.889 112.152C143.889 112.326 143.838 112.482 143.738 112.619C143.639 112.757 143.5 112.865 143.322 112.945C143.143 113.024 142.936 113.063 142.699 113.063C142.389 113.063 142.132 112.996 141.928 112.861C141.725 112.726 141.596 112.53 141.542 112.271L141.986 112.16C142.028 112.323 142.108 112.446 142.226 112.528C142.345 112.61 142.5 112.651 142.691 112.651C142.909 112.651 143.083 112.605 143.211 112.512C143.34 112.419 143.405 112.306 143.405 112.175C143.405 112.07 143.368 111.981 143.294 111.91C143.22 111.837 143.106 111.783 142.953 111.747L142.446 111.628C142.167 111.562 141.962 111.46 141.831 111.321C141.702 111.181 141.637 111.006 141.637 110.796C141.637 110.624 141.685 110.472 141.782 110.34C141.879 110.208 142.012 110.104 142.18 110.029C142.349 109.954 142.541 109.916 142.755 109.916C143.056 109.916 143.293 109.982 143.464 110.114C143.638 110.246 143.76 110.421 143.833 110.637ZM145.83 113.063C145.544 113.063 145.298 112.996 145.092 112.861C144.886 112.726 144.728 112.541 144.617 112.304C144.506 112.068 144.45 111.798 144.45 111.494C144.45 111.184 144.507 110.912 144.62 110.675C144.735 110.437 144.895 110.252 145.1 110.118C145.306 109.983 145.547 109.916 145.822 109.916C146.036 109.916 146.229 109.956 146.4 110.035C146.572 110.114 146.713 110.225 146.823 110.368C146.932 110.511 147 110.677 147.027 110.867H146.559C146.523 110.729 146.444 110.606 146.321 110.499C146.199 110.39 146.036 110.336 145.83 110.336C145.647 110.336 145.487 110.384 145.35 110.479C145.214 110.573 145.107 110.705 145.031 110.877C144.955 111.048 144.918 111.248 144.918 111.478C144.918 111.713 144.955 111.918 145.029 112.092C145.104 112.267 145.21 112.402 145.346 112.499C145.483 112.595 145.645 112.643 145.83 112.643C145.951 112.643 146.061 112.622 146.161 112.58C146.26 112.538 146.344 112.477 146.412 112.397C146.481 112.318 146.53 112.223 146.559 112.112H147.027C147 112.292 146.935 112.454 146.83 112.598C146.727 112.74 146.591 112.854 146.42 112.939C146.251 113.022 146.054 113.063 145.83 113.063ZM147.71 113V109.956H148.162V110.415H148.194C148.25 110.265 148.35 110.143 148.495 110.049C148.641 109.955 148.805 109.908 148.987 109.908C149.021 109.908 149.064 109.909 149.116 109.91C149.167 109.911 149.206 109.913 149.233 109.916V110.392C149.217 110.388 149.18 110.382 149.124 110.374C149.068 110.365 149.009 110.36 148.947 110.36C148.799 110.36 148.667 110.391 148.551 110.453C148.436 110.514 148.345 110.598 148.277 110.707C148.211 110.814 148.178 110.936 148.178 111.073V113H147.71ZM150.683 113.071C150.49 113.071 150.315 113.035 150.158 112.962C150.001 112.888 149.876 112.782 149.783 112.643C149.691 112.503 149.644 112.334 149.644 112.136C149.644 111.961 149.679 111.82 149.747 111.712C149.816 111.602 149.908 111.516 150.023 111.454C150.138 111.392 150.265 111.346 150.404 111.315C150.544 111.284 150.684 111.258 150.826 111.24C151.011 111.216 151.161 111.198 151.276 111.186C151.392 111.173 151.476 111.151 151.529 111.121C151.584 111.091 151.611 111.038 151.611 110.962V110.947C151.611 110.751 151.557 110.599 151.45 110.491C151.344 110.382 151.184 110.328 150.968 110.328C150.745 110.328 150.57 110.377 150.443 110.475C150.316 110.573 150.227 110.677 150.176 110.788L149.732 110.629C149.811 110.445 149.917 110.3 150.049 110.197C150.182 110.093 150.328 110.02 150.485 109.979C150.643 109.937 150.799 109.916 150.953 109.916C151.05 109.916 151.163 109.928 151.29 109.952C151.418 109.974 151.541 110.021 151.66 110.092C151.78 110.164 151.88 110.271 151.959 110.415C152.039 110.559 152.078 110.752 152.078 110.994V113H151.611V112.588H151.587C151.555 112.654 151.502 112.724 151.428 112.8C151.354 112.875 151.256 112.939 151.133 112.992C151.01 113.045 150.86 113.071 150.683 113.071ZM150.754 112.651C150.939 112.651 151.095 112.615 151.222 112.542C151.35 112.469 151.447 112.376 151.511 112.261C151.578 112.146 151.611 112.025 151.611 111.898V111.47C151.591 111.494 151.547 111.515 151.48 111.535C151.414 111.554 151.337 111.57 151.25 111.585C151.164 111.598 151.08 111.61 150.998 111.621C150.918 111.63 150.852 111.638 150.802 111.644C150.68 111.66 150.567 111.686 150.461 111.722C150.357 111.756 150.272 111.808 150.207 111.878C150.144 111.947 150.112 112.041 150.112 112.16C150.112 112.322 150.172 112.445 150.293 112.528C150.414 112.61 150.568 112.651 150.754 112.651ZM155.313 109.956L154.187 113H153.711L152.585 109.956H153.093L153.933 112.382H153.965L154.805 109.956H155.313ZM157.058 113.063C156.783 113.063 156.542 112.998 156.334 112.867C156.128 112.736 155.967 112.553 155.851 112.318C155.736 112.083 155.678 111.808 155.678 111.494C155.678 111.177 155.736 110.9 155.851 110.663C155.967 110.427 156.128 110.243 156.334 110.112C156.542 109.981 156.783 109.916 157.058 109.916C157.333 109.916 157.573 109.981 157.779 110.112C157.987 110.243 158.148 110.427 158.263 110.663C158.379 110.9 158.437 111.177 158.437 111.494C158.437 111.808 158.379 112.083 158.263 112.318C158.148 112.553 157.987 112.736 157.779 112.867C157.573 112.998 157.333 113.063 157.058 113.063ZM157.058 112.643C157.266 112.643 157.438 112.59 157.573 112.483C157.708 112.376 157.808 112.235 157.872 112.061C157.937 111.886 157.969 111.697 157.969 111.494C157.969 111.29 157.937 111.101 157.872 110.925C157.808 110.749 157.708 110.607 157.573 110.499C157.438 110.39 157.266 110.336 157.058 110.336C156.849 110.336 156.677 110.39 156.542 110.499C156.408 110.607 156.308 110.749 156.243 110.925C156.178 111.101 156.146 111.29 156.146 111.494C156.146 111.697 156.178 111.886 156.243 112.061C156.308 112.235 156.408 112.376 156.542 112.483C156.677 112.59 156.849 112.643 157.058 112.643Z" fill="black"/>
</svg>
